<?xml version="1.0" standalone="no"?>
<!DOCTYPE svg PUBLIC "-//W3C//DTD SVG 20010904//EN"
 "http://www.w3.org/TR/2001/REC-SVG-20010904/DTD/svg10.dtd">
<svg version="1.0" xmlns="http://www.w3.org/2000/svg"
 width="2016.000000pt" height="2016.000000pt" viewBox="0 0 2016.000000 2016.000000"
 preserveAspectRatio="xMidYMid meet">
<metadata>
Created by potrace 1.11, written by Peter Selinger 2001-2013
</metadata>
<g transform="translate(0.000000,2016.000000) scale(0.100000,-0.100000)"
fill="#000000" stroke="none">
<path d="M17013 13198 c4 -12 1 -18 -9 -18 -8 0 -12 -5 -8 -11 4 -8 1 -8 -12
-1 -14 8 -25 6 -39 -5 -16 -13 -17 -15 -2 -10 9 4 17 2 17 -3 0 -6 -7 -10 -15
-10 -14 0 -20 -12 -16 -34 1 -5 -6 -6 -15 -2 -14 5 -15 4 -4 -9 11 -14 7 -19
-12 -16 -4 0 -5 -8 -3 -19 2 -11 0 -20 -4 -20 -5 0 -7 -11 -6 -24 2 -14 -3
-27 -10 -30 -8 -3 -11 -15 -7 -32 3 -19 1 -25 -7 -20 -6 4 -11 4 -10 -1 4 -24
-3 -53 -15 -65 -10 -10 -11 -20 -4 -31 7 -13 6 -17 -4 -15 -7 2 -12 -3 -10 -9
1 -7 -2 -13 -8 -13 -5 0 -10 -4 -10 -10 0 -5 8 -7 18 -3 11 4 9 -1 -8 -16 -14
-12 -18 -19 -10 -15 9 5 8 -1 -5 -15 -11 -13 -19 -25 -18 -27 3 -5 -5 -30 -22
-69 -27 -61 -47 -135 -41 -150 3 -8 0 -15 -5 -15 -6 0 -9 -9 -6 -20 3 -11 1
-20 -3 -20 -5 0 -9 -8 -9 -17 0 -17 -7 -55 -11 -60 -3 -4 -5 -13 -14 -68 -4
-27 -10 -63 -13 -80 -4 -16 -7 -42 -7 -57 -1 -14 -4 -24 -8 -22 -5 4 -34 -79
-38 -111 -1 -5 -6 -16 -12 -22 -6 -7 -8 -19 -5 -27 3 -8 2 -16 -4 -18 -5 -2
-11 -13 -14 -26 -2 -13 -16 -47 -30 -77 -14 -30 -25 -59 -25 -65 0 -11 -9 -24
-42 -60 -9 -10 -14 -21 -11 -24 4 -3 -1 -6 -10 -6 -10 0 -17 -4 -17 -10 0 -5
-7 -10 -15 -10 -8 0 -15 -3 -15 -8 0 -10 -79 -50 -112 -57 -71 -13 -78 -16
-73 -25 3 -6 -1 -10 -9 -10 -9 0 -16 -7 -16 -15 0 -8 -6 -12 -14 -9 -18 7 -30
-12 -15 -22 8 -5 9 -3 4 6 -5 9 -4 11 4 6 6 -4 9 -12 5 -17 -3 -5 -10 -7 -15
-4 -5 4 -9 -1 -9 -10 0 -9 -3 -14 -7 -12 -5 3 -8 -17 -8 -44 -1 -31 3 -49 11
-49 7 0 15 -7 18 -16 5 -14 4 -15 -9 -4 -20 16 -19 6 1 -14 9 -9 11 -16 4 -16
-6 0 -8 -5 -5 -10 4 -6 12 -8 18 -4 7 3 3 -2 -8 -12 -16 -13 -17 -16 -3 -11
10 3 20 2 23 -3 4 -6 0 -10 -8 -10 -10 0 -13 -8 -9 -25 2 -14 8 -23 11 -20 4
2 8 -2 8 -9 0 -9 -7 -12 -16 -9 -13 5 -14 3 -3 -8 15 -16 16 -30 1 -27 -6 2
-14 -4 -16 -12 -3 -10 -2 -11 4 -3 6 8 13 7 28 -4 16 -12 16 -14 3 -10 -10 3
-20 2 -23 -4 -4 -5 -1 -8 6 -7 7 2 14 -11 16 -31 3 -21 1 -31 -6 -26 -7 3 -8
0 -5 -9 3 -9 10 -16 16 -16 5 0 6 5 3 10 -3 6 -1 10 5 10 13 0 9 -32 -5 -42
-6 -5 -5 -8 3 -8 6 0 12 -5 12 -11 0 -5 -4 -7 -10 -4 -6 3 -7 -1 -4 -9 3 -9
10 -14 14 -11 5 3 6 -5 3 -17 -4 -19 -3 -20 6 -8 7 9 11 10 11 3 0 -6 -5 -15
-11 -19 -8 -4 -7 -9 2 -15 12 -8 11 -11 -1 -19 -12 -8 -12 -10 -1 -10 11 0 11
-3 0 -17 -11 -15 -11 -16 1 -5 16 14 34 16 25 3 -3 -5 2 -16 10 -24 11 -12 12
-17 2 -20 -9 -4 -9 -6 1 -6 7 -1 10 -5 7 -11 -3 -5 2 -10 12 -10 12 0 14 -3 6
-8 -9 -6 -7 -12 7 -22 13 -10 16 -18 9 -26 -6 -8 -5 -14 6 -18 11 -4 14 -2 9
7 -4 7 -3 8 2 4 12 -11 11 -40 -1 -50 -5 -5 1 -5 13 -2 22 6 23 5 12 -15 -8
-15 -8 -20 -1 -16 6 4 11 2 11 -4 0 -6 5 -8 13 -4 7 5 6 0 -3 -11 -9 -11 -10
-16 -2 -11 7 4 12 2 12 -5 0 -6 10 -21 23 -32 16 -15 17 -18 5 -14 -10 4 -18
2 -18 -3 0 -10 14 -14 39 -10 13 1 13 -1 2 -14 -9 -11 -10 -16 -2 -16 6 0 11
-9 11 -21 0 -11 5 -17 10 -14 6 3 10 1 10 -5 0 -6 4 -9 8 -6 7 4 11 -10 14
-51 1 -7 10 -15 20 -19 10 -3 15 -10 12 -16 -5 -8 -1 -9 11 -4 16 6 16 4 4
-11 -10 -12 -10 -15 -1 -9 15 9 45 -12 36 -25 -3 -5 1 -9 8 -9 10 0 9 -3 -2
-11 -12 -9 -11 -10 6 -6 18 4 20 0 19 -34 -1 -21 2 -36 7 -33 5 3 6 9 3 14 -3
5 -2 11 3 14 4 2 8 -8 7 -24 0 -15 -3 -26 -7 -23 -5 2 -8 -3 -8 -12 0 -9 4
-14 8 -11 5 3 9 -1 9 -9 0 -8 -4 -12 -9 -9 -4 3 -8 0 -8 -5 0 -6 6 -11 13 -11
8 0 9 -3 1 -8 -15 -10 -9 -41 12 -56 19 -14 3 -33 -18 -20 -7 4 -8 3 -4 -4 4
-7 15 -12 24 -12 15 0 15 -2 2 -10 -13 -8 -12 -10 4 -10 19 0 19 0 1 -13 -20
-16 -13 -37 13 -38 14 0 13 -2 -3 -8 -19 -8 -19 -8 4 -20 22 -12 22 -13 5 -33
-10 -11 -14 -19 -9 -18 24 5 27 -1 9 -16 -16 -13 -16 -15 -2 -10 10 3 20 0 24
-6 4 -7 3 -8 -4 -4 -8 5 -12 -2 -12 -18 0 -14 3 -26 8 -26 4 0 8 -23 8 -51 1
-31 7 -55 15 -60 12 -7 11 -9 -1 -9 -12 0 -12 -2 -2 -9 17 -11 22 -44 8 -53
-8 -5 -7 -8 2 -8 8 0 10 -5 6 -12 -5 -8 0 -7 11 2 17 14 17 14 2 -16 -13 -25
-13 -31 -2 -31 8 0 11 5 8 10 -3 6 -1 7 5 3 9 -5 8 -13 -3 -29 -15 -23 -10
-40 15 -50 12 -4 11 -6 -3 -6 -10 -1 -15 -6 -12 -11 4 -6 10 -8 15 -5 4 3 6
-5 2 -17 -4 -16 -2 -19 8 -13 9 5 11 4 6 -4 -4 -6 -11 -9 -16 -6 -5 3 -12 0
-16 -6 -5 -8 -3 -9 6 -4 10 6 12 4 7 -8 -4 -10 -2 -14 7 -11 7 3 13 -2 13 -10
0 -8 -4 -13 -7 -11 -4 3 -7 -7 -7 -20 0 -14 3 -28 8 -31 5 -3 6 1 3 9 -3 8 -1
17 4 21 5 3 8 -5 7 -16 -1 -12 -7 -24 -14 -26 -8 -3 -6 -9 6 -19 10 -8 13 -12
7 -9 -7 3 -14 -1 -17 -9 -4 -9 -1 -12 9 -8 10 4 12 0 8 -11 -3 -9 -10 -13 -15
-10 -5 3 -9 1 -9 -5 0 -5 6 -11 13 -14 9 -3 9 -7 -2 -20 -7 -9 -11 -28 -9 -42
4 -19 2 -23 -7 -15 -8 7 -12 5 -12 -5 0 -8 4 -15 9 -15 4 0 8 -10 8 -22 0 -19
-2 -20 -11 -8 -9 12 -10 12 -5 -3 3 -10 6 -21 6 -24 0 -3 6 -2 13 3 7 5 4 1
-6 -8 -14 -13 -15 -18 -6 -19 8 0 5 -4 -6 -9 -18 -8 -18 -9 -2 -9 10 -1 16 -5
13 -10 -4 -5 0 -12 6 -14 8 -3 6 -6 -5 -6 -10 -1 -15 -6 -12 -11 4 -6 11 -7
17 -4 7 4 8 2 4 -4 -4 -6 -14 -9 -24 -6 -16 5 -16 5 1 -6 18 -11 25 -36 7 -25
-15 9 -12 -5 5 -22 14 -14 14 -18 0 -39 -14 -22 -14 -25 0 -31 13 -5 14 -7 3
-14 -10 -7 -11 -9 0 -9 7 0 10 -4 7 -10 -3 -5 2 -10 12 -11 16 0 16 -1 -2 -9
-11 -5 -14 -9 -7 -9 7 -1 10 -5 7 -11 -3 -5 -2 -10 4 -10 6 0 7 -7 4 -17 -5
-12 -3 -14 8 -8 11 7 11 5 -1 -10 -8 -10 -10 -16 -4 -12 7 4 15 0 18 -9 3 -8
2 -12 -4 -9 -6 3 -10 1 -10 -4 0 -6 5 -11 10 -11 6 0 10 -5 10 -11 0 -5 -4 -7
-10 -4 -6 3 -7 -1 -4 -9 3 -9 11 -13 18 -9 6 4 5 -1 -3 -10 -9 -11 -10 -17 -2
-17 6 0 11 -5 11 -11 0 -5 -4 -7 -10 -4 -5 3 -10 1 -10 -4 0 -6 5 -11 12 -11
6 0 8 -3 5 -7 -4 -3 -2 -12 4 -19 7 -8 6 -14 -2 -20 -8 -4 -9 -3 -5 4 5 8 1
10 -9 5 -13 -4 -14 -8 -4 -14 10 -6 10 -11 1 -22 -7 -7 -9 -16 -7 -19 10 -10
14 -48 5 -53 -5 -3 -7 4 -5 15 2 12 0 18 -6 14 -6 -3 -8 -9 -5 -12 3 -3 0 -12
-7 -20 -8 -11 -8 -14 0 -9 6 4 14 3 18 -3 3 -5 -2 -10 -11 -10 -16 0 -16 -1 1
-14 18 -13 18 -14 0 -23 -10 -6 -19 -22 -21 -37 -2 -18 1 -24 9 -20 8 5 8 3 0
-7 -7 -7 -13 -20 -13 -29 0 -13 2 -13 11 0 9 12 10 12 5 -3 -3 -10 -6 -21 -6
-23 0 -3 -6 -2 -12 2 -8 5 -7 1 2 -10 16 -21 23 -49 9 -40 -5 3 -6 10 -3 16 4
6 2 8 -4 5 -5 -4 -8 -16 -5 -27 3 -11 9 -17 14 -14 5 3 9 -2 9 -11 0 -9 -4
-14 -9 -10 -5 3 -13 0 -17 -6 -4 -7 -3 -9 4 -5 15 9 31 -22 24 -47 -3 -11 -1
-18 4 -14 5 3 10 -3 10 -13 0 -10 -4 -17 -7 -14 -4 2 -11 -1 -15 -7 -4 -7 -3
-9 3 -6 6 4 19 -3 29 -16 14 -16 14 -18 2 -9 -12 10 -18 10 -24 1 -4 -7 -3
-10 2 -7 5 3 15 0 22 -8 10 -11 10 -14 0 -14 -9 -1 -8 -4 3 -10 10 -6 15 -21
13 -44 -2 -20 2 -38 8 -42 6 -4 8 -3 4 4 -3 6 -1 14 6 18 7 4 10 4 6 -1 -4 -4
-3 -16 3 -26 8 -15 6 -18 -8 -13 -13 4 -11 0 5 -13 23 -19 23 -20 6 -37 -16
-17 -16 -17 2 -14 14 2 20 -4 22 -26 3 -20 0 -26 -9 -21 -8 5 -10 4 -5 -3 4
-6 13 -9 21 -5 17 6 21 -12 5 -22 -7 -4 -6 -14 2 -28 7 -12 11 -26 10 -30 -1
-5 7 -11 18 -14 11 -3 20 -10 20 -15 0 -5 -3 -7 -7 -5 -5 3 -9 -6 -9 -19 -2
-20 1 -23 12 -13 8 7 17 9 21 5 3 -3 2 -6 -3 -6 -5 0 -10 -10 -11 -22 0 -13
-3 -46 -5 -75 -1 -28 -6 -49 -10 -46 -5 2 -8 -5 -8 -16 0 -10 -6 -22 -12 -24
-7 -3 -2 -6 12 -7 l25 -1 -23 -10 c-21 -8 -22 -11 -9 -30 15 -20 12 -63 -3
-54 -5 3 -7 -6 -5 -21 2 -18 -2 -24 -11 -20 -7 3 -16 0 -20 -6 -4 -6 -3 -8 4
-4 6 3 13 3 16 -2 8 -13 -28 -11 -37 2 -5 6 -7 1 -4 -12 5 -20 3 -22 -11 -10
-9 7 -21 18 -25 23 -5 6 -7 3 -4 -7 3 -9 -1 -19 -10 -22 -10 -4 -17 1 -20 15
-4 16 -8 17 -14 7 -7 -10 -9 -10 -9 0 0 6 -5 12 -11 12 -5 0 -7 -4 -4 -10 10
-16 -1 -11 -16 7 -12 14 -12 16 0 8 10 -5 12 -4 7 3 -4 7 -14 12 -22 12 -8 0
-14 6 -14 13 0 8 -4 7 -10 -3 -8 -13 -10 -13 -10 2 0 11 -7 15 -25 14 -13 -2
-22 0 -20 4 3 4 -5 10 -16 13 -15 4 -20 11 -16 22 5 13 3 14 -13 5 -11 -6 -20
-7 -20 -1 0 5 -7 12 -16 15 -8 3 -12 2 -9 -4 3 -6 -1 -7 -9 -4 -9 3 -16 11
-16 16 0 6 -6 6 -14 -1 -11 -9 -17 -8 -28 6 -7 10 -22 20 -33 21 -11 2 -27 9
-35 16 -8 7 -27 11 -43 10 -19 -2 -25 1 -20 9 4 7 0 6 -10 -2 -11 -9 -17 -10
-17 -2 0 6 -3 10 -7 10 -5 -1 -15 -1 -23 0 -13 1 -13 2 0 11 8 5 10 10 4 10
-5 0 -15 -5 -22 -12 -9 -9 -12 -9 -12 1 0 7 -4 9 -10 6 -5 -3 -10 -2 -10 4 0
6 -7 7 -17 4 -11 -4 -14 -3 -9 5 5 8 -3 12 -26 13 -18 1 -36 1 -40 0 -5 0 -8
6 -8 14 0 8 -5 15 -11 15 -5 0 -8 -4 -4 -9 3 -5 0 -13 -7 -17 -7 -4 -10 -4 -6
1 11 12 -18 35 -46 35 -14 0 -26 5 -26 10 0 6 -12 10 -26 10 -14 0 -33 7 -41
16 -12 11 -18 12 -23 4 -5 -7 -10 -3 -14 12 -7 22 -7 22 -16 3 -6 -14 -9 -16
-10 -5 -2 8 -2 19 -1 24 1 5 -5 4 -13 -4 -13 -10 -16 -10 -16 3 0 10 -6 14
-15 11 -8 -4 -15 -1 -15 5 0 6 -5 11 -11 11 -5 0 -7 -6 -4 -12 4 -7 0 -5 -9 6
-8 10 -19 15 -24 12 -6 -3 -13 0 -15 6 -4 10 -8 9 -16 -2 -6 -8 -11 -10 -11
-5 0 6 4 15 10 21 7 7 2 10 -15 10 -14 0 -25 -4 -25 -10 0 -5 -3 -6 -6 -3 -4
4 -2 12 4 20 9 10 4 14 -21 16 -68 6 -77 8 -84 16 -5 4 -3 5 4 1 6 -3 15 -1
19 5 5 8 -1 10 -19 7 -15 -3 -25 -2 -22 1 2 4 -6 13 -18 21 -20 12 -21 12 -8
-3 20 -24 9 -21 -24 7 -16 14 -34 22 -39 18 -6 -3 -17 -7 -24 -8 -11 -2 -11 1
0 14 7 9 8 14 4 10 -5 -4 -16 -2 -24 5 -13 9 -14 9 -8 0 4 -7 2 -13 -3 -13 -6
0 -11 5 -11 11 0 8 -5 7 -16 -1 -8 -8 -14 -9 -13 -4 4 21 -2 28 -11 14 -9 -13
-10 -13 -10 0 0 21 -29 36 -68 35 -25 -1 -31 3 -27 15 3 8 -4 4 -14 -10 l-20
-25 6 24 c6 22 4 23 -25 19 -25 -4 -35 0 -47 19 -13 20 -19 22 -37 12 -16 -9
-19 -8 -13 2 6 9 3 11 -8 6 -9 -3 -19 -2 -22 4 -4 5 -11 7 -16 4 -5 -4 -9 -2
-9 4 0 5 6 12 13 15 6 3 0 3 -16 -1 -23 -4 -26 -2 -21 13 5 18 5 18 -6 2 -6
-10 -16 -18 -23 -18 -8 0 -6 4 3 11 12 9 11 10 -7 6 -13 -3 -23 -1 -23 5 0 5
-4 6 -10 3 -5 -3 -10 -1 -10 6 0 8 -5 7 -17 -2 -11 -10 -14 -10 -9 -1 4 6 4
12 -1 13 -4 0 -16 2 -26 4 -9 2 -15 -1 -11 -6 3 -5 10 -6 16 -3 6 4 8 2 5 -4
-5 -7 -14 -7 -31 1 -16 8 -21 14 -13 19 9 6 9 8 0 8 -6 0 -15 -5 -18 -11 -5
-6 -12 -4 -20 7 -11 16 -13 16 -23 -2 -11 -18 -11 -17 -12 6 -1 14 -4 19 -7
13 -7 -18 -24 -16 -38 4 -9 13 -14 13 -20 3 -6 -9 -4 -11 5 -5 9 5 11 4 6 -3
-12 -19 -29 -14 -23 8 5 18 4 18 -22 2 -25 -16 -26 -16 -11 3 8 11 10 17 6 13
-5 -4 -15 0 -23 10 -12 16 -13 16 -6 -2 5 -14 3 -17 -6 -11 -8 4 -17 2 -23 -6
-6 -10 -7 -6 -3 11 6 24 5 24 -9 6 -14 -17 -16 -18 -16 -3 0 9 -5 17 -11 17
-5 0 -8 -4 -5 -8 3 -5 -2 -9 -10 -9 -8 0 -13 6 -10 13 3 8 -3 10 -17 7 -18 -4
-19 -3 -7 6 8 6 10 11 4 11 -5 0 -15 -5 -22 -12 -9 -9 -12 -9 -12 1 0 11 -3
11 -17 0 -11 -10 -14 -10 -9 -1 5 8 -1 12 -19 12 -14 0 -24 4 -21 9 9 14 -20
21 -33 8 -10 -9 -12 -9 -9 2 2 7 -3 16 -11 19 -8 2 -11 0 -7 -6 3 -6 -1 -9
-10 -8 -8 1 -20 9 -25 17 -5 8 -9 10 -9 4 0 -7 -3 -7 -8 0 -12 17 -47 41 -38
28 4 -8 1 -13 -9 -13 -9 0 -13 5 -10 10 3 6 1 10 -4 10 -6 0 -11 -5 -11 -11 0
-6 -8 -3 -17 8 -10 10 -14 13 -9 6 6 -10 4 -12 -8 -7 -9 3 -16 12 -16 19 0 8
-8 11 -20 8 -11 -3 -17 -10 -13 -17 4 -6 -1 -5 -10 3 -18 15 -23 26 -7 16 6
-3 10 -1 10 4 0 14 -13 14 -28 -1 -7 -7 -12 -8 -12 -2 0 19 -49 35 -70 24 -15
-8 -22 -5 -34 12 -11 16 -16 18 -16 7 0 -8 3 -19 8 -25 4 -5 -3 1 -15 13 -22
23 -39 31 -28 14 3 -5 0 -13 -6 -17 -8 -4 -9 -3 -5 5 11 17 -22 25 -41 10 -9
-8 -14 -9 -10 -3 10 16 -18 25 -33 11 -10 -10 -10 -8 -2 9 10 20 9 21 -19 18
-17 -2 -35 -6 -40 -9 -5 -4 -9 2 -9 12 0 15 -2 16 -10 3 -7 -11 -10 -11 -10
-2 0 8 -5 10 -12 6 -20 -13 -49 -12 -39 0 7 8 -2 10 -31 8 -30 -3 -39 -1 -33
8 6 9 3 9 -15 0 -15 -8 -20 -8 -16 -1 4 6 4 11 -1 12 -66 5 -103 3 -103 -6 0
-5 -4 -3 -9 5 -6 8 -7 18 -4 23 3 5 -6 1 -21 -8 -18 -12 -26 -14 -26 -5 0 9
-3 10 -14 1 -10 -9 -16 -8 -26 4 -13 16 -35 21 -25 6 3 -5 0 -13 -6 -17 -7 -4
-9 -3 -5 4 3 6 1 14 -6 19 -17 10 -88 12 -82 1 3 -4 -4 -8 -15 -8 -10 0 -22 6
-24 13 -4 10 -6 10 -6 0 -1 -7 -6 -13 -12 -13 -5 0 -7 6 -3 13 5 7 0 6 -11 -3
-11 -9 -16 -10 -11 -2 5 8 -1 12 -23 12 -16 0 -37 3 -47 7 -12 4 -15 3 -10 -5
5 -8 2 -10 -8 -6 -9 3 -13 11 -9 18 4 6 0 6 -9 -2 -13 -10 -17 -10 -21 0 -4 9
-8 10 -14 3 -11 -15 -32 -13 -44 5 -9 13 -10 12 -5 -2 3 -12 0 -18 -10 -18 -8
0 -13 4 -10 8 6 10 -25 9 -42 -2 -7 -4 -12 -2 -12 5 0 9 -3 9 -14 0 -11 -9
-16 -9 -22 0 -5 8 -3 10 7 4 8 -5 11 -4 6 1 -5 5 -16 9 -25 9 -9 0 -16 6 -14
14 2 11 -4 10 -25 -4 -15 -10 -25 -14 -21 -10 4 4 1 14 -7 22 -11 11 -19 12
-36 2 -17 -9 -20 -8 -14 2 6 9 2 11 -14 6 -18 -4 -20 -3 -11 8 8 10 8 15 -1
21 -8 4 -9 3 -5 -4 4 -7 3 -12 -3 -12 -5 0 -13 5 -16 10 -5 8 -11 7 -21 -1 -8
-6 -17 -9 -21 -5 -3 3 -1 6 6 6 7 0 9 5 6 10 -5 8 -11 8 -20 0 -9 -8 -14 -6
-19 6 -6 15 -8 15 -24 1 -14 -13 -20 -13 -34 -3 -10 7 -15 16 -11 19 3 4 3 7
-1 7 -3 0 -11 -10 -16 -22 l-9 -23 0 24 c-1 23 -1 23 -18 4 -10 -10 -15 -14
-10 -7 4 7 1 14 -9 18 -23 9 -31 7 -14 -4 12 -8 10 -10 -8 -10 -16 0 -21 4
-16 13 6 9 5 9 -7 0 -12 -10 -18 -10 -29 0 -10 10 -11 9 -5 -2 6 -11 3 -13
-13 -9 -12 3 -24 1 -27 -6 -3 -6 -3 0 -1 12 4 23 4 23 -14 7 -18 -16 -20 -16
-26 -1 -3 9 -11 13 -17 9 -6 -4 -8 0 -4 10 3 9 1 19 -5 23 -6 4 -8 3 -5 -3 4
-6 -1 -13 -11 -15 -11 -3 -19 0 -19 8 0 7 5 10 10 7 6 -3 7 -2 4 4 -3 5 -19 9
-35 8 -21 -1 -29 3 -28 14 1 9 -3 17 -9 17 -5 1 -9 -2 -7 -7 1 -5 -2 -9 -8 -9
-5 0 -10 7 -10 16 0 14 -3 14 -15 4 -13 -11 -14 -10 -10 2 5 11 -1 16 -19 16
-16 0 -23 -5 -19 -12 3 -6 0 -6 -8 2 -7 6 -22 12 -32 12 -11 0 -26 8 -34 18
-14 16 -14 16 -9 0 3 -10 1 -18 -4 -18 -6 0 -10 11 -10 25 0 14 -5 25 -11 25
-5 0 -7 -6 -3 -12 5 -9 2 -9 -9 1 -9 7 -17 22 -17 33 0 12 -4 17 -12 12 -7 -4
-8 -3 -4 4 4 7 1 12 -8 12 -19 0 -20 5 -5 31 8 16 7 25 -7 40 -9 10 -12 19 -7
19 6 0 13 9 16 20 3 11 2 18 -3 15 -4 -3 -10 2 -13 10 -4 9 -1 12 7 9 8 -3 17
0 22 7 4 7 3 10 -4 5 -6 -3 -13 -2 -16 3 -4 5 2 12 11 14 17 4 17 5 1 6 -19 1
-21 6 -20 64 1 20 -3 37 -8 37 -6 0 -10 5 -10 11 0 5 5 7 11 3 8 -5 8 -1 0 13
-6 11 -7 24 -3 28 4 5 2 5 -5 1 -7 -4 -17 3 -24 16 -11 20 -10 21 3 11 12 -10
15 -10 15 2 0 8 -4 15 -8 15 -14 0 -16 51 -1 72 10 16 11 19 2 11 -18 -17 -36
-17 -22 0 6 7 13 26 15 42 2 17 10 29 16 28 6 -2 11 4 11 13 0 8 5 12 11 8 8
-5 8 -1 0 14 -15 28 -14 39 2 21 6 -8 11 -12 9 -10 -1 2 5 15 13 27 9 14 11
25 5 29 -15 9 -12 19 10 43 17 18 18 22 6 22 -17 0 -18 40 -1 52 6 5 3 8 -6 8
-9 0 -16 7 -16 15 0 8 4 12 9 9 4 -3 8 0 8 5 0 6 -4 11 -10 11 -5 0 -10 4 -10
10 0 5 8 7 18 4 15 -5 15 -4 -1 6 -14 9 -16 15 -6 26 11 14 1 20 -25 15 -5 -1
-4 5 4 13 15 19 24 21 14 4 -4 -7 -3 -8 5 -4 14 9 5 26 -13 26 -7 0 -13 7 -13
15 0 11 4 12 14 4 24 -21 13 0 -14 26 -23 21 -24 25 -8 20 16 -5 16 -4 -3 7
-12 8 -19 17 -16 21 4 4 1 7 -7 7 -11 0 -11 2 1 10 13 8 13 10 -2 10 -12 0
-15 5 -11 15 3 9 2 15 -3 13 -5 -2 -9 1 -9 7 0 5 3 9 8 8 14 -5 7 9 -15 29
-13 11 -18 17 -12 14 7 -3 18 2 25 11 8 9 9 14 3 10 -7 -4 -15 0 -18 9 -3 8
-2 13 3 10 5 -3 11 0 14 7 6 17 -17 49 -29 39 -4 -4 -2 1 5 11 11 14 11 17 0
17 -10 0 -14 13 -13 45 0 31 -3 42 -10 35 -5 -5 -15 -10 -21 -10 -5 0 -3 5 5
10 13 9 13 11 0 20 -8 5 -10 10 -4 10 6 0 11 7 11 15 0 11 -4 12 -11 5 -5 -5
-15 -10 -21 -10 -5 0 -4 4 4 9 12 8 12 14 1 40 -7 17 -16 29 -19 26 -4 -2 -8
2 -8 9 0 8 7 12 16 9 12 -3 12 -2 -1 7 -10 6 -18 18 -18 25 0 8 -5 15 -11 15
-8 0 -7 5 1 15 7 9 10 18 6 22 -3 3 -6 0 -6 -7 0 -8 -8 -4 -19 9 -11 12 -18
33 -16 47 2 18 -2 24 -11 20 -8 -3 -14 -1 -14 3 0 5 6 11 13 14 6 3 -1 10 -17
16 -25 10 -27 13 -15 28 12 14 12 16 0 8 -11 -6 -13 -4 -8 8 4 11 1 15 -12 12
-14 -2 -17 2 -15 21 2 19 -2 24 -19 24 -20 0 -20 1 -2 13 14 11 15 16 5 22 -9
5 -11 4 -6 -3 4 -7 1 -12 -8 -12 -10 0 -13 6 -9 17 4 11 3 14 -5 9 -7 -4 -12
-1 -12 7 0 8 -14 25 -32 38 -42 32 -67 59 -74 81 -3 10 -10 15 -16 12 -7 -4
-8 -2 -4 4 4 6 -1 24 -11 39 -10 15 -17 29 -15 30 19 18 -80 193 -109 193 -4
0 -28 10 -55 22 -27 12 -65 23 -84 25 -19 2 -48 5 -65 8 -31 5 -192 15 -260
16 -22 0 -141 -1 -265 -4 -241 -4 -265 -9 -293 -55 -16 -29 -140 -96 -239
-131 -95 -34 -218 -107 -293 -175 -22 -19 -43 -36 -47 -36 -20 0 -28 -41 -14
-73 20 -44 26 -87 12 -87 -7 0 -7 -3 -1 -8 6 -4 11 -14 12 -22 1 -8 6 -34 11
-57 6 -29 6 -40 -2 -37 -6 2 -12 -6 -12 -18 -2 -30 -10 -74 -24 -123 -6 -22
-12 -56 -13 -77 -1 -20 -5 -34 -9 -31 -5 2 -8 -3 -8 -11 0 -9 6 -16 13 -16 8
0 8 -3 -2 -9 -8 -5 -16 -31 -18 -58 -6 -81 -8 -88 -18 -95 -6 -5 -6 -8 1 -8 6
0 11 -7 11 -15 0 -8 -4 -12 -9 -9 -4 3 -9 0 -9 -5 -1 -6 -2 -17 -3 -23 -1 -7
2 -21 7 -32 6 -12 5 -16 -1 -12 -13 8 -20 -13 -17 -52 1 -19 -2 -32 -9 -32 -6
0 -4 -5 4 -10 8 -5 11 -10 5 -10 -5 0 -11 -11 -11 -25 -1 -16 2 -22 10 -18 8
5 8 3 0 -8 -6 -8 -10 -24 -9 -36 1 -13 -3 -23 -8 -23 -5 0 -4 -6 2 -14 9 -11
9 -15 -1 -19 -8 -4 -7 -6 5 -6 9 -1 17 -6 17 -12 0 -5 -4 -8 -9 -5 -5 3 -11
-1 -15 -9 -3 -9 0 -15 9 -15 8 0 15 -4 15 -10 0 -5 -5 -10 -12 -10 -6 0 -3 -7
8 -15 19 -15 19 -15 0 -30 -17 -13 -17 -15 -4 -15 9 0 20 -5 24 -12 4 -7 3 -8
-4 -4 -16 10 -27 -41 -12 -58 9 -11 9 -20 0 -37 -7 -12 -8 -24 -3 -28 4 -3 9
-21 9 -38 3 -77 4 -84 16 -77 7 5 8 3 2 -7 -13 -21 -14 -39 -1 -39 8 0 8 -3 0
-11 -9 -9 -8 -18 5 -37 15 -23 15 -25 -3 -38 -17 -12 -17 -14 -2 -14 9 0 17
-7 17 -16 0 -9 9 -18 20 -21 11 -3 17 -9 14 -14 -3 -5 -1 -9 4 -9 17 0 49 -35
44 -49 -3 -10 0 -12 13 -7 15 5 16 4 5 -9 -12 -14 -6 -20 21 -17 3 1 6 -6 6
-13 0 -12 -3 -12 -15 -2 -13 10 -14 9 -3 -10 7 -15 17 -20 29 -17 13 5 14 4 3
-4 -8 -6 -11 -17 -7 -28 6 -16 5 -16 -12 -3 -10 8 -8 4 5 -8 23 -22 31 -39 14
-28 -5 3 -13 1 -16 -5 -4 -6 -3 -10 2 -9 20 3 27 -2 13 -11 -13 -9 -13 -11 0
-20 11 -7 12 -10 2 -10 -10 0 -10 -4 2 -16 19 -19 21 -31 3 -15 -10 8 -14 7
-14 -4 0 -8 5 -15 10 -15 6 0 7 -3 4 -7 -4 -3 -1 -13 5 -21 7 -7 13 -24 15
-35 2 -17 1 -19 -6 -7 -5 8 -7 18 -4 24 4 5 1 6 -7 1 -9 -6 -11 -4 -5 5 5 8 4
11 -3 7 -12 -8 7 -57 22 -57 5 0 2 -8 -5 -17 -8 -9 -9 -14 -4 -11 6 4 16 -5
22 -19 10 -20 9 -24 -2 -19 -11 4 -12 0 -4 -21 7 -20 7 -24 -4 -20 -8 3 -14
-1 -14 -9 0 -9 6 -13 15 -9 12 5 12 2 -1 -17 -8 -13 -21 -22 -29 -20 -7 2 -3
-7 10 -20 22 -25 22 -25 2 -43 -11 -10 -17 -21 -15 -25 5 -8 -25 -37 -32 -32
-10 7 -22 0 -17 -12 4 -11 -1 -14 -20 -12 -23 3 -24 1 -14 -12 10 -13 10 -14
0 -8 -7 4 -14 1 -18 -8 -4 -12 -11 -13 -31 -5 -22 8 -24 8 -14 -5 10 -12 9
-14 -6 -11 -10 1 -17 8 -15 14 3 16 -3 14 -19 -6 -12 -15 -12 -16 1 -8 12 6
13 5 3 -5 -9 -10 -16 -10 -26 -2 -10 9 -16 9 -25 0 -9 -9 -12 -9 -12 2 0 13
-2 13 -10 0 -6 -10 -10 -11 -10 -2 0 6 -5 12 -11 12 -5 0 -7 -4 -4 -10 6 -10
-10 -15 -30 -10 -10 3 -69 1 -89 -3 -6 -1 -10 4 -8 11 1 8 -2 11 -8 7 -6 -3
-8 -11 -4 -16 3 -6 -5 -8 -21 -5 -19 4 -25 1 -22 -8 3 -7 -1 -13 -9 -13 -7 0
-11 4 -9 8 3 4 -2 10 -11 13 -10 4 -13 2 -8 -6 5 -7 0 -9 -14 -6 -16 5 -19 2
-14 -11 5 -14 4 -14 -12 -1 -16 12 -20 12 -30 -1 -11 -16 -51 -35 -42 -21 2 4
-5 8 -17 9 -12 0 -16 -1 -9 -4 6 -3 12 -9 12 -15 0 -6 -7 -8 -15 -4 -8 3 -15
0 -15 -7 0 -8 -4 -6 -10 3 -9 13 -10 13 -11 0 -1 -8 -1 -18 -1 -21 1 -3 -6 -6
-13 -6 -12 0 -12 3 -2 15 9 12 6 12 -14 -1 -14 -10 -29 -14 -34 -10 -4 5 -2
-3 5 -17 l13 -25 -23 20 c-13 11 -20 15 -17 9 6 -10 -25 -27 -37 -21 -1 1 -10
-4 -19 -12 -10 -7 -17 -10 -17 -6 0 5 -9 0 -20 -10 -11 -10 -17 -22 -14 -26 3
-5 -3 -6 -12 -2 -13 5 -15 3 -9 -8 8 -12 6 -12 -8 0 -11 9 -17 10 -17 2 0 -6
-5 -11 -11 -11 -6 0 -9 7 -5 15 3 8 3 15 0 15 -2 0 -9 -11 -14 -24 -9 -25 -23
-28 -49 -12 -11 7 -13 5 -7 -9 5 -14 4 -16 -7 -7 -8 7 -17 9 -20 5 -4 -3 -7
-2 -7 4 0 11 -29 11 -49 -2 -10 -6 -12 -4 -6 5 5 9 2 10 -13 6 -12 -4 -23 -2
-28 5 -5 8 -3 9 6 4 9 -5 11 -4 6 4 -10 15 -26 4 -26 -17 0 -14 -2 -15 -9 -2
-6 8 -8 17 -6 20 2 4 -2 7 -10 7 -8 0 -12 -4 -9 -9 3 -4 0 -8 -5 -8 -6 0 -11
5 -11 11 0 6 -6 9 -13 6 -8 -3 -20 -1 -28 4 -12 7 -12 9 0 9 8 0 12 2 9 5 -9
10 -38 -7 -31 -18 3 -6 1 -7 -6 -3 -6 4 -19 2 -27 -5 -12 -10 -15 -10 -12 1 2
7 -7 13 -20 15 -17 1 -21 -2 -17 -14 4 -11 1 -10 -14 3 -19 18 -21 18 -27 2
-5 -14 -9 -15 -15 -4 -7 11 -9 11 -9 -1 0 -8 -7 -11 -20 -8 -14 4 -20 0 -21
-11 0 -11 -2 -13 -6 -4 -4 10 -8 10 -21 0 -13 -11 -14 -11 -7 1 6 10 4 12 -4
7 -7 -5 -10 -14 -7 -22 4 -11 0 -10 -19 2 -24 16 -25 16 -18 -2 6 -17 5 -17
-10 -5 -19 15 -19 15 -35 -14 -6 -11 -12 -14 -12 -7 0 7 -5 10 -10 7 -6 -4 -8
-12 -4 -18 3 -7 -2 -3 -10 7 -16 20 -16 20 -17 0 -1 -10 -1 -23 0 -28 1 -5 -5
-4 -13 4 -9 7 -16 9 -16 4 0 -5 -5 -2 -10 6 -8 12 -10 10 -10 -9 0 -24 0 -24
-15 -5 -9 10 -14 13 -13 5 2 -7 -3 -16 -11 -19 -9 -3 -11 0 -6 8 6 9 3 9 -13
1 -11 -6 -23 -16 -25 -23 -4 -10 -6 -10 -6 0 -1 7 -5 10 -11 7 -5 -3 -10 -1
-10 6 0 7 -3 9 -6 6 -4 -4 -1 -14 7 -24 13 -17 13 -17 -12 -1 -26 17 -27 17
-22 -5 3 -15 2 -18 -4 -9 -12 16 -43 5 -43 -17 0 -14 -2 -14 -10 -1 -8 13 -11
12 -23 -4 -14 -19 -14 -19 -26 0 -12 18 -12 18 -8 -1 3 -15 -1 -21 -16 -22
-11 -1 -24 -8 -28 -15 -5 -7 -9 -8 -9 -3 0 6 5 16 12 23 7 7 9 12 5 12 -3 0
-15 -10 -26 -22 -17 -18 -23 -19 -36 -8 -13 11 -14 10 -9 -4 5 -12 2 -15 -12
-9 -13 5 -15 3 -9 -7 5 -9 4 -11 -3 -6 -7 4 -12 2 -12 -3 0 -6 -5 -11 -11 -11
-5 0 -7 5 -4 10 3 6 1 10 -4 10 -6 0 -11 -5 -11 -11 0 -5 -6 -7 -12 -3 -8 5
-7 0 2 -11 14 -17 14 -18 -9 -6 -15 8 -21 9 -17 2 4 -6 0 -11 -8 -11 -9 0 -16
-5 -16 -11 0 -5 5 -7 12 -3 7 4 8 3 4 -5 -6 -9 -11 -9 -22 0 -13 11 -18 6 -15
-15 1 -5 -5 -6 -14 -2 -9 3 -14 2 -11 -3 3 -5 -1 -11 -9 -15 -9 -3 -12 -12 -8
-23 6 -16 5 -17 -12 -3 -17 14 -18 14 -6 -8 9 -18 9 -22 -1 -20 -8 2 -12 -6
-10 -22 2 -16 0 -20 -5 -13 -6 9 -12 7 -22 -8 -7 -12 -8 -18 -3 -15 5 3 15 -1
22 -9 11 -13 10 -14 -3 -9 -9 3 -26 -2 -39 -11 l-23 -17 25 7 25 7 -23 -17
c-12 -9 -19 -21 -16 -27 4 -7 2 -8 -5 -4 -6 4 -9 11 -7 15 3 4 -1 8 -9 8 -7 0
-12 -8 -10 -19 2 -11 -2 -18 -11 -18 -9 0 -12 5 -8 12 5 7 3 8 -5 4 -7 -5 -10
-15 -6 -23 4 -12 2 -13 -8 -5 -10 9 -17 8 -26 -1 -10 -9 -11 -9 -6 5 5 12 2
16 -12 13 -10 -2 -18 -4 -18 -5 0 -1 -8 -3 -18 -5 -9 -2 -15 1 -11 6 3 5 10 6
16 3 6 -4 8 -2 5 3 -4 6 -21 9 -39 7 -25 -3 -29 -1 -20 8 7 7 12 17 12 23 0 5
-5 3 -10 -5 -8 -11 -12 -12 -18 -3 -11 18 -67 19 -89 3 -16 -13 -17 -13 -6 0
10 13 6 15 -28 15 -22 0 -36 -1 -30 -3 6 -2 11 -8 11 -13 0 -6 -5 -7 -12 -3
-8 5 -9 2 -5 -9 5 -13 2 -15 -18 -7 -16 6 -27 6 -31 -2 -4 -6 -3 -8 3 -5 5 3
10 -1 10 -9 0 -10 -4 -11 -11 -4 -15 15 -29 12 -22 -5 5 -13 2 -14 -15 -4 -17
9 -20 8 -14 -2 6 -9 3 -11 -8 -6 -9 3 -19 1 -23 -5 -4 -7 -3 -8 4 -4 7 4 12 1
12 -9 0 -9 -6 -15 -12 -12 -19 7 -48 -11 -48 -30 0 -9 -3 -14 -6 -10 -4 3 -14
-2 -23 -11 -9 -10 -12 -13 -8 -6 5 7 3 15 -4 20 -8 4 -9 3 -5 -4 4 -7 2 -12
-5 -12 -6 0 -9 -8 -6 -19 3 -14 1 -18 -9 -14 -8 3 -11 10 -7 16 3 6 1 7 -6 3
-6 -4 -9 -11 -6 -16 3 -4 -7 -16 -21 -25 -15 -9 -23 -11 -19 -4 6 8 4 10 -4 5
-7 -5 -10 -14 -7 -21 3 -8 -2 -11 -13 -8 -12 3 -26 -5 -39 -22 -12 -15 -26
-24 -32 -20 -5 3 -10 2 -10 -2 0 -16 -38 -34 -46 -21 -5 7 -3 8 6 3 9 -6 11
-4 6 4 -6 9 -13 8 -28 -6 -11 -9 -18 -13 -16 -8 2 6 -1 10 -7 10 -5 0 -9 -3
-8 -6 3 -10 -49 -1 -56 9 -9 13 -40 9 -80 -11 -40 -20 -41 -20 -41 -6 0 5 4 7
10 4 6 -4 7 1 3 11 -5 14 -8 13 -19 -7 -8 -15 -14 -18 -14 -9 0 12 -3 11 -11
-3 -8 -14 -14 -16 -25 -6 -11 9 -14 8 -15 -2 0 -8 -4 -5 -9 6 -8 19 -9 19 -9
-3 l-1 -23 -27 26 c-30 27 -55 35 -29 9 20 -19 20 -21 1 -21 -8 0 -12 4 -9 8
4 8 -36 35 -46 30 -2 -1 -6 3 -8 11 -2 8 0 9 5 3 4 -5 14 -11 22 -13 12 -3 12
-1 1 13 -9 11 -23 14 -39 11 -14 -3 -20 -3 -13 0 18 8 15 22 -9 29 -17 6 -18
9 -7 23 12 16 11 16 -7 2 -11 -8 -24 -19 -28 -25 -5 -6 -7 -3 -3 8 6 19 5 19
-39 22 -16 1 -33 -3 -37 -9 -5 -8 -8 -7 -8 2 0 7 -5 10 -10 7 -6 -4 -8 -10 -6
-14 3 -4 -8 -6 -25 -5 -18 1 -27 -2 -22 -9 4 -7 0 -8 -11 -4 -14 6 -17 3 -12
-10 6 -14 4 -14 -15 3 -12 10 -19 14 -15 7 4 -7 -2 -17 -14 -23 -14 -8 -20 -8
-20 0 0 7 -8 9 -19 5 -11 -3 -24 1 -32 12 -9 11 -10 14 -1 9 6 -4 12 -2 12 3
0 6 -7 11 -16 11 -8 0 -12 5 -9 10 3 6 0 10 -7 10 -9 0 -9 3 2 10 12 8 12 10
1 10 -11 0 -11 3 0 17 10 11 10 14 1 9 -8 -5 -12 -1 -13 11 -1 10 -2 27 -3 38
0 11 -5 26 -10 34 -6 9 -5 12 1 8 6 -4 14 0 17 9 4 9 2 13 -5 8 -13 -8 -3 33
14 56 6 8 7 12 3 8 -5 -4 -15 -3 -23 4 -11 9 -10 15 7 33 15 16 17 22 6 22 -8
0 -13 -4 -10 -9 3 -4 0 -8 -5 -8 -14 0 -14 13 1 28 9 9 9 12 -3 12 -12 0 -12
2 1 10 10 6 11 10 3 10 -7 0 -13 5 -13 11 0 5 4 8 8 5 4 -2 8 4 8 15 0 14 -6
18 -21 14 -11 -3 -14 -2 -7 1 6 3 9 11 6 16 -4 7 -2 8 4 4 7 -4 12 -2 12 3 0
6 -8 11 -17 11 -15 0 -16 2 -3 10 12 7 12 10 1 10 -7 0 -11 6 -8 15 4 8 1 17
-5 21 -7 5 -8 2 -3 -6 5 -9 4 -11 -4 -6 -9 6 -9 11 1 24 10 12 10 14 1 8 -8
-4 -13 -1 -13 8 0 9 -6 16 -14 16 -8 0 -18 9 -21 20 -3 11 -10 20 -15 20 -8 0
-23 38 -21 53 1 5 -3 6 -9 2 -6 -4 -7 -12 -3 -19 4 -7 -2 -1 -14 13 -15 17
-19 29 -13 35 7 7 2 15 -12 24 l-23 13 23 -4 c15 -4 20 -1 15 6 -11 18 -12 38
-2 31 5 -3 9 7 9 21 0 14 4 24 9 21 17 -11 19 19 2 39 -9 12 -10 15 -1 8 19
-17 26 -16 28 2 1 8 3 22 4 30 1 13 5 12 22 -2 13 -12 17 -13 10 -3 -18 24
-25 52 -13 44 7 -4 10 -1 7 7 -3 8 4 27 15 43 14 19 16 27 6 22 -7 -4 -6 -1 4
7 14 11 15 16 5 20 -8 3 -5 6 6 6 19 1 19 1 1 14 -14 11 -15 16 -5 22 9 6 11
4 5 -6 -5 -8 -4 -11 1 -6 5 5 9 12 9 15 0 4 4 12 8 19 4 6 2 15 -4 19 -8 5 -9
3 -4 -6 5 -9 4 -11 -4 -6 -14 9 -5 26 13 26 7 0 13 7 13 15 0 11 -4 12 -14 3
-11 -8 -12 -7 -7 6 4 10 1 16 -7 17 -8 0 -4 4 9 10 26 10 21 32 -6 22 -15 -6
-15 -5 -3 10 10 13 10 17 1 17 -9 0 -10 3 -1 14 9 11 7 15 -10 19 -18 5 -20 9
-10 21 9 11 9 16 0 22 -8 5 -9 3 -4 -6 6 -9 4 -11 -5 -5 -10 6 -9 11 6 22 18
13 17 14 -8 9 -22 -4 -26 -1 -21 12 3 9 3 14 -2 10 -15 -14 -34 25 -23 46 7
13 7 16 -1 12 -6 -4 -11 -3 -11 3 0 5 -9 12 -19 16 -12 4 -18 12 -14 21 3 7 0
14 -7 14 -6 0 -8 5 -5 10 3 6 -1 10 -10 10 -10 0 -13 -5 -9 -12 4 -7 3 -8 -4
-4 -9 5 -9 13 -1 28 6 11 7 18 2 15 -5 -3 -16 3 -24 15 -15 23 -49 61 -36 42
5 -7 3 -15 -4 -20 -8 -4 -9 -3 -5 5 4 6 0 14 -9 17 -11 5 -13 10 -5 19 8 9 6
14 -6 19 -9 4 -14 9 -11 13 4 3 2 11 -3 18 -7 8 -5 12 5 12 8 0 11 -5 8 -11
-3 -6 -2 -7 3 -3 5 5 9 26 10 48 1 32 -2 39 -14 34 -12 -4 -11 -1 3 15 10 11
15 23 12 27 -4 3 -7 1 -7 -5 0 -7 -5 -12 -10 -12 -7 0 -7 6 -2 18 5 9 7 23 4
31 -2 8 0 11 5 8 5 -3 10 0 10 8 0 18 -9 19 -27 3 -8 -7 -7 -4 3 8 16 19 16
21 -1 38 -10 11 -11 16 -3 11 11 -6 13 -4 7 10 -6 16 -4 16 10 4 16 -13 16
-12 5 9 -7 13 -10 26 -8 29 3 2 1 18 -3 34 -5 18 -5 27 1 24 5 -3 6 1 3 9 -3
9 -11 13 -17 9 -6 -4 -7 -1 -1 8 12 20 16 51 5 44 -5 -3 -13 -1 -16 5 -4 6 -1
9 6 8 6 -2 14 3 17 11 3 8 0 11 -6 7 -11 -7 -9 25 3 44 3 6 0 10 -7 10 -9 0
-9 3 2 10 13 9 13 10 0 10 -13 0 -13 1 0 10 10 7 11 10 2 10 -7 0 -11 11 -10
29 1 16 -4 37 -12 47 -11 13 -11 16 -2 10 11 -6 13 0 12 25 -3 51 -1 61 10 54
16 -10 11 1 -7 16 -14 12 -16 12 -8 0 5 -9 4 -12 -2 -8 -11 7 -11 43 0 53 10
11 8 26 -2 20 -18 -11 -4 24 15 39 18 14 18 14 -3 8 -25 -6 -30 6 -11 25 9 9
9 12 -3 13 -9 0 -6 4 6 9 17 7 17 9 3 9 -11 1 -15 6 -12 16 4 8 10 12 16 9 5
-3 4 4 -4 15 -11 18 -11 23 2 31 10 7 11 10 3 11 -28 3 -32 4 -40 13 -4 5 -4
7 2 3 6 -3 19 2 30 10 14 11 15 14 4 10 -12 -4 -17 1 -18 16 -1 43 -4 56 -13
51 -5 -3 -5 -10 -2 -16 4 -6 2 -8 -4 -5 -5 4 -8 17 -4 29 4 16 2 19 -8 13 -9
-6 -11 -4 -4 6 10 17 11 47 2 77 -4 12 -3 22 2 22 6 0 10 5 10 11 0 5 -6 7
-13 3 -8 -6 -8 -3 1 9 8 9 15 40 16 70 2 30 6 58 8 63 3 5 9 34 12 64 8 65 15
108 22 133 3 10 0 17 -8 17 -10 0 -10 2 1 9 8 5 12 18 9 29 -3 10 -1 26 3 35
5 9 5 18 1 21 -5 3 -10 27 -10 53 -1 26 -4 59 -7 72 -2 13 -7 53 -10 89 -3 36
-10 71 -16 78 -7 8 -7 14 1 19 6 4 7 12 0 24 -5 10 -10 35 -12 55 -1 20 -5 36
-8 36 -3 0 -6 12 -7 28 -1 38 -6 56 -17 64 -5 3 -10 17 -12 30 -1 12 -7 43
-14 68 -13 48 -17 68 -25 101 -2 11 -6 28 -9 37 -3 9 -8 28 -10 42 -3 14 -13
52 -21 85 -9 33 -18 69 -20 80 -2 11 -11 49 -19 85 -8 36 -16 83 -19 105 -3
22 -8 51 -11 65 -3 14 -8 45 -10 70 -3 25 -8 61 -11 81 -6 35 -12 84 -19 144
-2 17 -7 42 -10 58 -3 15 -8 39 -11 55 -3 15 -8 41 -12 57 -9 46 -14 78 -16
103 0 12 -5 22 -10 22 -5 0 -7 9 -4 20 3 11 1 20 -3 20 -4 0 -6 8 -3 19 3 10
0 22 -6 25 -6 4 -11 18 -11 32 0 13 -5 24 -11 24 -5 0 -7 4 -4 10 3 5 0 29 -7
52 -7 24 -13 48 -13 53 -1 6 -7 21 -15 35 -7 14 -13 26 -12 27 4 8 -26 62 -31
56 -4 -3 -7 -1 -7 6 0 8 -7 11 -15 7 -8 -3 -15 -1 -15 5 0 6 -8 5 -22 -2 -18
-10 -20 -9 -14 6 5 14 4 16 -7 7 -8 -7 -18 -8 -23 -4 -4 4 -2 -2 6 -12 10 -14
11 -17 2 -12 -17 10 -38 -8 -58 -49 -15 -33 -14 -166 2 -231 4 -16 8 -40 10
-54 1 -14 3 -25 4 -25 1 0 3 -11 6 -25 5 -33 13 -73 20 -110 3 -16 6 -42 8
-57 1 -18 7 -27 16 -25 10 2 11 0 3 -10 -12 -15 -13 -48 -3 -48 4 0 5 -12 2
-26 -3 -16 -1 -25 5 -21 5 3 10 0 10 -8 0 -8 -4 -12 -9 -9 -4 3 -8 0 -8 -5 0
-6 5 -11 11 -11 8 0 8 -5 -1 -15 -10 -12 -9 -16 5 -21 11 -5 13 -9 5 -14 -6
-4 -11 -15 -11 -26 -1 -23 9 -206 16 -291 4 -61 4 -63 -20 -63 -26 0 -32 5
-39 41 -10 47 -31 104 -46 124 -27 37 -133 74 -147 52 -3 -5 -9 -3 -14 4 -7
11 -9 11 -9 -1 0 -13 -1 -13 -10 0 -8 13 -10 12 -10 -4 0 -16 -2 -17 -17 -5
-11 10 -14 10 -9 2 4 -8 2 -13 -4 -13 -6 0 -8 -5 -4 -12 4 -6 3 -8 -3 -5 -6 4
-17 -1 -24 -10 -10 -12 -10 -14 -2 -9 7 4 13 2 13 -3 0 -6 -6 -11 -12 -11 -9
0 -9 -3 1 -9 11 -7 11 -10 -2 -12 -15 -4 -15 -7 -2 -34 l15 -30 -19 23 -20 23
3 -24 c1 -12 6 -29 10 -36 5 -7 3 -18 -3 -24 -9 -9 -11 -8 -6 6 4 10 2 17 -5
17 -6 0 -8 -4 -5 -10 3 -5 0 -10 -7 -10 -10 0 -9 -3 2 -11 12 -8 12 -12 2 -16
-10 -4 -9 -9 5 -20 10 -8 13 -12 6 -9 -6 4 -14 2 -18 -4 -3 -5 -1 -10 5 -10 7
0 8 -6 0 -19 -7 -14 -6 -21 3 -24 7 -3 5 -6 -5 -6 -10 -1 -18 -4 -18 -9 0 -4
-9 -13 -20 -19 -16 -11 -18 -10 -14 1 7 18 -12 30 -22 15 -5 -8 -3 -9 6 -4 9
5 11 4 6 -4 -11 -16 -28 -2 -22 18 5 12 2 11 -9 -3 -8 -11 -15 -15 -15 -10 0
6 -7 11 -15 11 -8 0 -12 -4 -9 -9 3 -4 0 -8 -5 -8 -6 0 -11 6 -11 13 0 8 -3 7
-10 -3 -6 -9 -5 -20 3 -30 11 -13 10 -13 -5 -1 -10 7 -15 18 -11 24 3 5 1 7
-5 3 -5 -3 -13 0 -16 6 -3 7 -4 4 -3 -7 1 -15 -4 -20 -23 -20 -17 0 -25 -6
-25 -17 0 -10 -6 -23 -14 -30 -12 -11 -12 -10 -6 2 8 13 7 13 -9 1 -13 -11
-14 -16 -4 -23 9 -6 10 -10 2 -15 -14 -10 -11 -63 10 -136 9 -32 16 -62 16
-66 0 -11 -37 -21 -45 -13 -3 4 -29 7 -56 8 -39 2 -49 0 -45 -11 3 -9 0 -12
-9 -9 -10 4 -13 0 -10 -16 4 -19 2 -20 -12 -8 -15 11 -16 11 -10 -6 6 -14 4
-17 -10 -12 -15 6 -15 5 1 -13 18 -20 18 -20 -1 -17 -12 3 -20 -1 -20 -9 0 -8
5 -11 11 -8 6 4 5 -1 -3 -10 -9 -12 -10 -17 -2 -17 7 0 9 -5 6 -10 -5 -8 -12
-7 -22 2 -15 12 -15 11 -3 -9 8 -12 19 -19 25 -16 5 3 4 0 -2 -8 -7 -7 -13
-19 -13 -27 0 -12 3 -12 17 -1 15 13 15 11 -1 -13 -13 -20 -14 -28 -5 -34 8
-5 10 -3 4 7 -8 12 -6 12 8 0 10 -8 15 -21 12 -32 -3 -9 -1 -20 5 -24 6 -4 9
-13 6 -21 -3 -8 0 -14 7 -15 7 0 3 -4 -8 -9 l-20 -9 20 -1 c11 -2 23 -2 28 -1
12 2 8 -6 -10 -20 -15 -12 -16 -12 -8 1 6 12 6 13 -6 2 -9 -8 -10 -15 -4 -20
15 -11 17 -32 3 -33 -7 -1 -2 -5 12 -9 l25 -8 -24 -1 -23 -1 23 -21 c13 -11
19 -18 13 -15 -7 3 -14 -3 -17 -14 -4 -15 0 -20 14 -20 16 0 18 -2 7 -14 -7
-8 -17 -11 -22 -8 -5 3 -6 0 -2 -7 6 -9 11 -9 22 0 12 10 13 9 8 -6 -5 -13 -4
-16 5 -11 7 5 10 2 9 -6 -2 -7 4 -12 12 -10 12 3 13 1 3 -9 -16 -16 -17 -49
-2 -49 5 0 8 -4 4 -9 -3 -5 -1 -12 4 -16 6 -3 7 -13 4 -22 -5 -12 -3 -14 8 -8
12 8 12 6 0 -8 -10 -13 -10 -17 -1 -17 10 0 10 -3 1 -14 -9 -11 -9 -16 0 -22
7 -4 9 -3 6 3 -3 5 -1 10 6 10 7 0 12 -10 12 -23 0 -12 -3 -20 -6 -18 -3 1 -6
-3 -6 -11 0 -8 4 -12 9 -9 4 3 8 -1 8 -8 0 -10 3 -9 11 2 9 12 10 12 5 -4 -4
-10 1 -30 10 -45 9 -14 11 -20 3 -13 -23 21 -33 13 -12 -10 30 -34 35 -46 22
-54 -8 -5 -9 -3 -4 6 6 9 4 11 -5 5 -10 -6 -7 -13 13 -29 20 -16 24 -25 16
-38 -8 -14 -5 -20 15 -29 14 -7 23 -15 21 -20 -8 -13 6 -39 19 -33 6 3 2 -2
-9 -12 -18 -15 -18 -16 -1 -10 15 5 17 2 13 -14 -3 -11 -1 -18 4 -14 5 3 9 -4
9 -15 0 -11 6 -24 12 -28 20 -13 38 -39 43 -62 3 -15 -6 -26 -36 -44 -21 -13
-36 -27 -32 -30 3 -4 0 -7 -9 -7 -21 0 -57 -42 -41 -47 10 -4 10 -7 0 -18 -7
-7 -15 -11 -18 -9 -3 2 -6 -3 -6 -11 0 -8 3 -12 7 -10 10 6 8 -29 -2 -42 -6
-7 -8 -19 -5 -27 4 -10 1 -13 -7 -10 -7 3 -13 -2 -13 -10 0 -8 4 -13 8 -11 4
3 6 -3 5 -12 -2 -10 2 -22 8 -26 7 -6 6 -7 -4 -4 -8 2 -14 10 -12 16 1 7 -2
10 -8 6 -7 -4 -7 -12 0 -26 8 -14 7 -19 -2 -19 -6 0 -3 -7 8 -16 10 -8 13 -13
7 -9 -9 4 -13 -1 -13 -15 0 -14 -4 -19 -12 -14 -9 5 -9 2 1 -9 7 -9 10 -17 7
-17 -4 0 -2 -9 4 -19 7 -14 6 -21 -3 -24 -9 -4 -9 -6 1 -6 6 -1 12 -6 12 -12
0 -5 -6 -7 -12 -3 -9 5 -9 2 1 -9 12 -15 11 -17 -5 -17 -15 0 -16 -2 -5 -9 7
-5 11 -13 7 -19 -3 -6 -1 -14 5 -18 7 -4 9 -3 5 4 -3 6 -3 13 2 16 4 2 8 -9 7
-25 0 -16 -3 -29 -7 -29 -5 0 -8 5 -8 12 0 6 -3 8 -7 4 -5 -4 1 -14 11 -22 12
-8 15 -14 7 -14 -11 0 -11 -3 0 -17 12 -15 12 -16 -1 -8 -12 6 -13 5 -2 -6 6
-7 12 -19 12 -27 0 -8 -5 -10 -12 -6 -10 6 -10 4 -2 -7 18 -23 24 -58 9 -53
-7 3 -16 0 -21 -7 -4 -7 -3 -10 4 -5 20 12 25 -17 6 -32 -16 -13 -17 -14 -2
-9 19 7 25 -8 8 -18 -6 -4 -8 -16 -4 -27 4 -15 3 -18 -6 -13 -8 5 -11 4 -6 -3
3 -6 1 -14 -4 -17 -8 -5 -6 -13 5 -25 15 -16 15 -19 0 -34 -9 -9 -13 -21 -9
-27 4 -7 3 -9 -4 -5 -6 3 -14 1 -18 -5 -4 -7 -3 -9 4 -5 18 11 23 -11 6 -28
-8 -9 -11 -16 -5 -16 14 0 7 -43 -7 -48 -9 -3 -9 -9 0 -25 10 -19 9 -20 -4
-10 -12 10 -15 10 -15 -2 0 -8 4 -15 9 -15 5 0 7 -4 3 -10 -3 -5 -13 -6 -22
-3 -13 5 -12 1 5 -17 13 -14 18 -27 13 -34 -15 -19 -17 -52 -3 -69 9 -10 10
-17 2 -22 -5 -3 -10 -11 -10 -16 0 -6 5 -7 11 -3 8 4 8 0 0 -15 -8 -14 -8 -21
-1 -21 5 0 10 -5 10 -11 0 -5 -4 -8 -9 -4 -5 3 -12 1 -16 -5 -6 -9 9 -15 30
-10 5 1 2 -7 -8 -18 -9 -10 -14 -22 -10 -26 11 -11 12 -37 1 -30 -5 3 -8 -2
-6 -12 2 -11 -2 -18 -9 -16 -7 1 -13 -3 -13 -9 0 -6 10 -8 23 -5 12 3 16 3 9
0 -6 -3 -9 -11 -6 -16 4 -6 2 -8 -3 -5 -6 4 -14 0 -17 -9 -3 -8 -2 -13 2 -10
5 3 9 -2 9 -10 0 -9 -6 -13 -14 -10 -8 3 -12 2 -8 -3 3 -5 -1 -12 -7 -14 -7
-3 -2 -6 12 -7 22 -1 23 -2 6 -9 -20 -8 -24 -19 -28 -83 -2 -32 -4 -35 -17
-25 -12 9 -13 9 -7 0 4 -7 2 -23 -5 -35 -9 -16 -9 -23 0 -26 6 -2 11 -8 11
-13 0 -6 -4 -7 -10 -4 -11 7 -14 -8 -3 -19 11 -10 12 -37 2 -30 -5 3 -7 10 -4
15 4 5 1 9 -5 9 -10 0 -7 -40 5 -60 3 -5 0 -7 -8 -4 -15 5 -17 -22 -2 -45 5
-9 4 -12 -2 -8 -15 9 -22 -37 -10 -58 7 -13 6 -16 -1 -11 -7 4 -14 -4 -18 -19
-4 -15 -11 -22 -18 -18 -6 3 -7 2 -3 -3 5 -5 13 -10 18 -10 5 -1 12 -2 15 -3
4 0 1 -8 -6 -16 -6 -8 -8 -20 -4 -27 5 -8 1 -8 -11 2 -11 9 -16 10 -11 2 4 -7
1 -15 -9 -18 -13 -5 -14 -9 -4 -15 10 -6 10 -11 0 -22 -10 -13 -9 -17 5 -25
15 -8 15 -9 0 -15 -11 -5 -15 -3 -10 5 4 7 3 8 -5 4 -8 -6 -9 -12 -2 -20 6 -7
8 -16 4 -19 -3 -4 -2 -7 3 -7 5 0 10 -9 10 -19 0 -11 -4 -18 -7 -15 -4 2 -11
-1 -15 -7 -4 -7 -3 -9 4 -5 6 3 14 1 18 -6 12 -19 12 -48 1 -55 -6 -3 -7 -1
-3 5 5 8 1 10 -9 5 -13 -4 -14 -8 -4 -14 18 -11 21 -42 4 -35 -9 3 -12 0 -8
-9 3 -8 9 -12 14 -9 5 3 6 -2 3 -10 -3 -9 -10 -14 -14 -11 -5 3 -12 0 -16 -6
-4 -8 -3 -9 4 -5 7 4 12 2 12 -4 0 -6 5 -8 13 -4 8 5 8 3 -2 -9 -7 -9 -11 -28
-9 -42 3 -14 -1 -33 -8 -42 -7 -10 -13 -22 -14 -28 0 -5 5 -3 10 5 8 13 11 13
22 1 10 -10 10 -12 1 -7 -12 6 -15 0 -12 -20 0 -4 -5 -11 -13 -15 -10 -6 -8
-9 7 -9 17 0 17 -2 5 -10 -13 -8 -13 -13 -2 -30 12 -20 12 -21 -10 -9 l-23 12
20 -23 c17 -20 17 -22 3 -17 -12 4 -15 2 -11 -9 3 -7 10 -14 15 -14 6 0 0 -9
-13 -20 -13 -11 -19 -20 -14 -19 23 3 25 -3 11 -36 -11 -24 -12 -37 -4 -41 6
-4 8 -3 5 2 -3 6 -1 16 4 24 7 11 8 7 5 -12 -3 -15 -7 -32 -10 -37 -4 -5 -1
-13 5 -16 5 -4 8 -14 5 -22 -4 -10 -2 -13 7 -10 8 3 14 0 15 -6 0 -7 3 -22 6
-35 3 -13 1 -20 -5 -17 -5 4 -9 1 -9 -4 0 -6 6 -11 13 -11 8 0 8 -3 -2 -9 -11
-7 -10 -10 5 -14 18 -4 18 -5 0 -6 -20 -1 -20 -1 0 -16 17 -13 17 -14 2 -15
-10 0 -18 -4 -18 -9 0 -6 10 -8 22 -6 22 4 22 4 4 -10 -11 -8 -15 -15 -9 -15
7 0 9 -9 5 -22 -5 -21 -4 -22 14 -8 17 13 18 13 8 0 -12 -17 -12 -30 -1 -48
10 -15 -14 -12 -25 3 -5 6 -8 6 -8 -2 0 -7 8 -17 18 -22 13 -8 14 -11 2 -11
-10 -1 -9 -4 5 -10 12 -5 14 -9 6 -9 -11 -1 -10 -6 5 -23 19 -22 19 -22 0 -8
-15 11 -18 12 -12 1 5 -8 3 -17 -5 -23 -10 -6 -6 -7 11 -2 22 6 23 5 11 -10
-12 -15 -8 -21 12 -17 5 1 6 -3 2 -9 -3 -6 -11 -8 -16 -5 -5 4 -9 1 -9 -4 0
-6 5 -11 12 -11 6 0 8 -3 5 -7 -4 -3 -2 -12 4 -19 6 -8 7 -14 0 -18 -6 -4 -8
-13 -5 -21 4 -8 10 -12 16 -9 5 3 4 -4 -4 -15 -11 -18 -11 -23 2 -31 13 -9 13
-10 0 -10 -13 0 -13 -2 -1 -9 8 -5 12 -18 8 -31 -3 -13 0 -23 9 -27 10 -4 11
-9 4 -17 -7 -9 -4 -19 11 -34 11 -12 16 -22 12 -22 -4 0 0 -5 10 -11 13 -8 15
-14 7 -29 -11 -21 -13 -41 -2 -24 5 8 13 6 25 -6 14 -14 15 -20 6 -26 -8 -4
-10 -3 -5 4 4 7 2 12 -3 12 -16 0 -13 -21 5 -34 19 -14 26 -77 10 -89 -7 -6
-4 -7 7 -3 19 6 24 -10 5 -17 -8 -3 -6 -6 4 -6 13 -1 17 -8 14 -23 -2 -15 4
-30 18 -41 11 -10 15 -16 9 -12 -9 4 -11 1 -7 -9 3 -9 9 -14 13 -11 4 2 8 -2
8 -9 0 -8 -7 -12 -14 -9 -8 3 -4 -6 10 -20 22 -24 34 -63 16 -51 -4 2 -11 0
-14 -6 -4 -6 -1 -9 6 -8 8 2 14 -7 15 -21 1 -14 10 -31 20 -39 17 -13 17 -14
2 -9 -10 4 -18 2 -18 -3 0 -6 8 -10 17 -10 15 0 14 -2 -3 -16 -10 -8 -13 -13
-6 -9 6 3 12 0 12 -7 0 -9 3 -9 10 2 5 8 10 10 10 5 0 -6 -5 -16 -12 -23 -9
-9 -9 -12 1 -12 7 0 10 -4 6 -9 -3 -5 2 -17 11 -25 8 -9 11 -16 6 -16 -5 0 -9
-7 -9 -15 0 -11 4 -12 14 -3 11 9 12 7 7 -7 -6 -14 -4 -16 7 -10 12 8 12 6 0
-9 -13 -15 -13 -19 -1 -26 8 -5 18 -6 22 -4 5 3 7 0 6 -8 -2 -7 3 -12 10 -10
10 2 10 -2 2 -18 -6 -11 -7 -20 -3 -19 25 4 41 -4 51 -27 7 -14 17 -22 23 -18
6 3 17 -3 25 -15 15 -22 41 -30 28 -9 -4 7 -3 8 5 4 9 -6 9 -11 0 -22 -10 -12
-9 -13 6 -8 13 5 16 4 11 -4 -5 -8 -2 -10 8 -6 9 3 16 10 16 15 0 5 5 9 12 9
9 0 9 -3 0 -12 -7 -7 -12 -19 -12 -27 0 -11 3 -12 8 -4 5 8 11 8 24 -1 10 -7
16 -15 13 -18 -3 -2 2 -5 10 -5 8 0 12 4 9 9 -3 4 0 8 5 8 6 0 11 -9 11 -19 0
-24 16 -36 26 -20 5 8 3 9 -6 4 -9 -5 -11 -4 -6 3 5 9 14 7 31 -5 12 -10 20
-22 17 -27 -3 -5 4 -7 16 -4 13 4 20 2 19 -6 -1 -6 8 -11 20 -10 17 0 20 -3
13 -16 -8 -15 -5 -17 20 -14 17 2 30 -1 30 -6 0 -6 9 -10 20 -10 11 0 20 -6
20 -12 0 -9 4 -8 10 2 6 10 10 11 10 3 0 -7 7 -13 16 -13 9 0 23 -8 30 -17 9
-12 13 -14 14 -5 0 7 5 10 10 7 6 -4 8 -10 5 -15 -3 -4 2 -10 10 -13 10 -4 12
-1 9 11 -3 9 2 6 10 -8 14 -22 21 -21 17 4 -1 5 4 4 12 -2 8 -7 18 -8 22 -4 5
4 5 1 1 -6 -4 -7 -13 -9 -19 -5 -7 4 -5 -1 3 -11 8 -10 16 -13 18 -8 2 6 13 1
25 -11 12 -12 21 -26 19 -30 -1 -5 2 -6 8 -2 8 5 8 11 1 19 -8 9 -7 13 4 13 8
0 12 -4 9 -9 -3 -4 0 -8 5 -8 6 0 10 -5 8 -11 -1 -6 5 -14 13 -16 12 -4 12 -3
1 5 -8 6 -9 12 -3 16 6 3 13 -3 17 -13 3 -11 12 -18 19 -15 6 2 25 -7 42 -21
16 -14 37 -25 47 -25 21 0 47 -22 48 -42 0 -7 4 -4 9 7 8 18 9 18 9 2 1 -10 6
-15 11 -12 6 3 10 2 10 -3 0 -6 7 -13 16 -16 15 -6 15 -4 3 11 -13 17 -13 17
7 0 11 -9 25 -14 29 -10 5 5 4 0 -3 -9 -11 -14 -10 -16 5 -14 19 3 44 -15 36
-26 -2 -5 8 -3 22 2 19 7 24 7 19 -2 -5 -8 -2 -9 10 -5 10 4 23 -1 34 -14 19
-23 59 -48 48 -30 -11 17 5 13 26 -6 15 -13 18 -14 15 -2 -2 8 -2 11 0 6 3 -4
9 -5 14 -2 5 4 7 0 4 -7 -4 -9 3 -13 20 -13 14 0 25 5 26 10 0 6 5 -1 10 -15
10 -24 11 -24 25 -6 8 11 14 14 14 8 0 -7 3 -11 8 -11 19 3 33 -2 27 -10 -5
-9 33 -6 63 4 7 3 10 0 7 -5 -5 -8 31 -15 58 -11 4 0 7 -4 7 -10 0 -6 5 -7 12
-2 19 11 39 13 32 2 -3 -5 -10 -7 -15 -4 -5 4 -6 -2 -2 -11 4 -11 8 -13 11 -6
6 19 32 14 33 -5 0 -15 2 -15 7 -3 4 8 13 16 21 18 12 3 12 1 0 -14 -13 -16
-12 -16 8 -5 20 10 22 9 16 -5 -4 -12 -3 -15 5 -10 17 10 53 16 48 7 -3 -4 -1
-13 5 -21 5 -8 9 -10 9 -4 0 6 6 11 14 11 8 0 12 -6 9 -13 -3 -9 2 -11 16 -7
12 3 21 1 21 -6 0 -6 4 -11 10 -11 5 0 8 6 6 13 -1 6 -1 9 1 4 3 -4 10 -4 16
0 6 4 8 0 4 -10 -3 -9 -1 -19 5 -23 6 -4 8 -3 4 4 -3 6 -2 13 4 17 5 3 10 0
10 -7 0 -9 3 -9 10 2 8 12 10 12 11 -5 l0 -20 9 20 c6 14 9 15 10 5 0 -12 4
-10 17 5 12 16 14 16 10 3 -3 -10 -2 -20 3 -23 6 -4 10 -1 10 4 0 19 27 12 44
-11 8 -13 13 -16 10 -7 -6 19 11 35 21 19 4 -6 11 -8 16 -5 5 4 9 2 9 -3 0 -6
7 -13 16 -16 8 -3 13 -2 10 3 -3 5 2 15 11 22 9 8 14 9 11 4 -4 -6 -3 -17 3
-25 7 -13 9 -12 9 2 0 9 5 20 12 24 7 5 8 3 3 -6 -6 -9 1 -12 28 -8 20 2 33 0
31 -4 -3 -4 -1 -8 5 -8 5 0 14 7 19 16 6 11 11 13 16 5 4 -6 2 -11 -3 -11 -6
0 -11 -4 -11 -8 0 -12 36 -8 53 6 12 10 15 10 13 -2 0 -8 3 -14 9 -13 5 1 9 5
8 10 -2 4 2 7 7 7 6 0 10 -4 10 -9 0 -10 32 -7 50 4 6 3 10 2 10 -3 0 -5 9
-12 21 -15 15 -4 18 -2 10 7 -7 8 -5 12 9 12 10 0 17 -4 14 -7 -2 -4 0 -10 6
-14 5 -3 10 0 10 7 0 9 3 9 10 -2 9 -13 10 -13 11 0 0 10 3 8 9 -5 5 -11 9
-14 9 -7 1 6 6 12 12 12 5 0 7 -6 3 -12 -6 -10 -4 -10 7 0 7 6 18 12 24 12 5
0 3 -5 -5 -11 -11 -8 -6 -9 20 -4 27 5 32 4 20 -5 -12 -8 -8 -10 18 -6 18 2
32 0 32 -6 0 -6 6 -5 16 2 8 8 14 9 13 4 -4 -22 2 -26 14 -9 13 17 15 17 35
-3 14 -14 22 -17 22 -9 0 13 53 17 66 5 4 -4 -3 -6 -14 -3 -12 2 -24 0 -27 -5
-3 -4 3 -7 12 -5 10 1 24 -2 31 -8 7 -6 12 -6 11 -1 -4 21 2 28 11 14 9 -13
10 -13 10 0 0 13 1 13 10 0 8 -12 12 -13 19 -2 6 11 10 10 16 -5 5 -10 7 -22
6 -26 -1 -4 7 -3 18 2 23 13 35 3 18 -17 -9 -13 -9 -14 1 -8 12 7 13 4 16 -33
0 -11 5 -23 10 -28 5 -5 6 -3 2 5 -4 6 -3 12 2 12 5 0 12 -9 15 -21 3 -12 10
-19 15 -15 5 3 9 -1 9 -9 0 -8 -5 -12 -11 -9 -6 3 -4 0 5 -8 9 -7 15 -21 13
-32 -2 -11 5 -20 17 -23 18 -5 19 -6 2 -19 -15 -12 -15 -13 -2 -8 10 3 20 0
25 -7 5 -8 3 -10 -7 -5 -8 4 -6 1 3 -7 11 -9 14 -17 8 -23 -7 -7 -3 -18 11
-32 11 -13 21 -31 22 -42 1 -10 5 -16 9 -14 5 3 5 11 1 17 -4 7 0 6 10 -2 18
-14 23 -26 8 -17 -10 7 -23 -19 -14 -28 4 -3 11 -6 17 -6 6 0 4 5 -4 10 -9 6
-10 10 -3 10 20 0 24 -17 8 -33 -13 -13 -13 -16 1 -21 8 -3 12 -2 9 4 -3 6 -1
10 6 10 6 0 9 -8 6 -19 -3 -14 -1 -18 9 -14 10 4 12 0 8 -11 -4 -10 0 -18 10
-22 9 -3 16 -10 16 -16 0 -5 -4 -7 -9 -3 -5 3 -13 0 -17 -6 -4 -8 -3 -9 4 -5
7 4 12 2 12 -4 0 -6 4 -9 9 -6 5 3 12 -1 15 -10 4 -10 2 -13 -7 -9 -6 4 -4 0
6 -8 18 -15 18 -15 0 -20 -14 -4 -12 -5 6 -6 19 -1 21 -4 12 -15 -9 -11 -8
-15 4 -20 11 -4 14 -2 9 6 -4 7 -3 8 4 4 9 -5 9 -13 2 -26 -7 -13 -7 -21 2
-26 7 -5 8 -3 3 6 -5 8 -4 11 3 6 6 -4 8 -14 5 -23 -5 -12 -3 -14 8 -8 12 8
12 6 0 -8 -7 -9 -9 -17 -5 -17 5 0 15 -10 23 -23 13 -20 13 -21 -2 -9 -12 10
-17 10 -23 1 -4 -8 -3 -9 4 -5 7 4 12 1 12 -9 0 -10 5 -13 13 -9 7 5 6 0 -3
-11 -14 -17 -13 -17 10 -10 24 7 24 6 6 -8 -16 -12 -17 -16 -5 -23 8 -5 14
-16 14 -24 0 -8 6 -14 14 -12 12 3 12 1 1 -13 -12 -14 -11 -18 1 -26 10 -6 11
-9 1 -9 -7 0 -10 -5 -7 -10 4 -6 10 -8 14 -5 5 2 6 -7 3 -22 -4 -20 -2 -24 9
-18 8 5 6 -1 -5 -13 -18 -21 -18 -21 3 -17 11 2 24 -1 27 -7 4 -6 3 -8 -3 -5
-18 11 -23 -21 -7 -38 14 -13 14 -15 -3 -15 -14 -1 -11 -4 10 -16 15 -8 27
-17 27 -20 0 -3 -4 -2 -10 1 -5 3 -10 -3 -10 -14 0 -12 5 -21 11 -21 8 0 8 -5
-1 -15 -10 -12 -10 -15 3 -15 10 0 13 -6 10 -20 -3 -11 0 -20 6 -20 6 0 11 -5
11 -11 0 -5 -4 -7 -10 -4 -19 12 -10 -7 13 -27 12 -11 16 -16 9 -13 -10 5 -13
2 -10 -11 2 -11 10 -18 17 -16 7 1 10 -2 6 -7 -3 -6 -13 -7 -23 -4 -14 5 -14
3 2 -9 10 -8 16 -20 12 -26 -4 -7 -1 -12 6 -12 9 0 9 -3 -2 -10 -13 -8 -13
-10 2 -10 9 0 20 -5 23 -10 4 -6 1 -9 -6 -8 -7 2 -13 -8 -14 -23 -1 -15 3 -26
11 -26 10 0 11 4 3 14 -7 8 -8 13 -1 13 17 0 23 -30 7 -36 -8 -4 -12 -10 -9
-15 3 -5 11 -6 17 -2 8 4 7 1 -1 -9 -10 -13 -10 -17 0 -20 10 -4 10 -9 -2 -23
-9 -11 -10 -16 -3 -11 7 4 13 2 13 -3 0 -6 -6 -11 -12 -11 -8 0 -9 -3 -3 -8 6
-4 17 -16 25 -26 14 -18 14 -19 -8 -7 -22 11 -22 11 -10 -8 7 -12 17 -21 22
-21 6 0 1 -7 -10 -15 -12 -9 -13 -13 -4 -10 18 6 25 -31 8 -41 -6 -4 -8 -2 -4
4 3 6 2 13 -3 16 -5 4 -8 -2 -6 -11 1 -10 7 -17 13 -16 5 1 12 -6 15 -17 3
-14 0 -17 -12 -13 -14 4 -14 3 -1 -9 9 -7 14 -25 12 -42 -3 -21 0 -26 10 -20
7 4 5 -2 -5 -13 -15 -17 -16 -23 -5 -34 19 -20 22 -50 6 -60 -7 -5 -8 -9 -3
-9 6 0 16 -4 24 -9 12 -8 12 -12 2 -25 -9 -11 -10 -16 -2 -16 6 0 11 -7 11
-16 0 -9 -5 -12 -12 -8 -9 5 -9 2 1 -9 10 -13 11 -20 2 -31 -8 -10 -9 -16 -1
-21 6 -4 9 -3 8 2 -2 4 1 8 6 8 6 0 11 -11 12 -24 2 -13 5 -25 8 -28 3 -3 1
-16 -4 -29 -7 -17 -5 -27 5 -38 18 -18 19 -33 3 -39 -10 -4 -10 -6 0 -6 8 -1
10 -6 6 -13 -5 -8 -2 -8 10 1 15 12 17 12 14 0 -2 -8 -7 -17 -13 -21 -6 -5 -5
-8 4 -8 11 0 11 -3 0 -17 -10 -11 -10 -14 -1 -9 6 4 12 3 12 -3 0 -5 -5 -13
-11 -17 -8 -4 -7 -9 2 -15 8 -5 1591 -9 3542 -9 3036 0 3527 2 3527 14 0 8 6
17 13 20 6 3 3 4 -9 1 -14 -4 -21 0 -21 9 0 8 7 12 16 9 14 -4 14 -3 -1 9 -15
13 -15 15 0 26 13 9 13 11 2 9 -10 -1 -14 7 -14 26 1 15 -2 27 -6 27 -4 0 -5
12 -2 26 4 21 2 25 -9 19 -12 -8 -12 -6 0 8 9 12 10 17 2 17 -7 0 -9 5 -5 12
5 7 9 21 9 30 1 14 -1 15 -12 6 -11 -9 -12 -7 -6 8 3 10 11 23 17 27 7 6 4 7
-6 3 -10 -3 -20 -1 -23 4 -4 6 0 10 7 10 10 0 10 2 0 9 -8 4 -14 12 -14 16 0
4 6 12 14 16 10 7 10 9 1 9 -7 0 -13 7 -13 16 0 9 5 12 12 8 6 -4 4 3 -5 16
-11 17 -13 27 -6 36 7 8 6 15 -2 20 -8 5 -9 3 -4 -6 5 -8 4 -11 -3 -6 -17 10
-3 36 16 28 14 -5 15 -4 2 10 -8 9 -19 14 -25 11 -5 -2 -1 3 9 11 20 16 20 16
0 16 -16 0 -17 2 -4 10 13 8 13 10 0 10 -10 0 -11 3 -3 11 8 8 8 20 3 35 -7
17 -5 28 6 39 9 8 12 15 7 15 -5 0 -14 -5 -21 -12 -7 -7 -12 -9 -12 -6 0 4 7
14 16 22 12 12 12 16 2 16 -10 0 -9 3 2 10 9 6 10 10 3 10 -12 0 -12 44 0 56
3 3 3 13 -1 22 -5 15 -4 16 14 2 18 -14 18 -14 4 4 -15 19 -23 99 -9 90 5 -3
6 2 3 10 -3 9 -11 13 -16 10 -6 -4 -2 6 8 22 18 28 18 29 0 14 -18 -14 -19
-14 -6 9 7 13 12 47 12 75 0 28 5 54 12 58 8 5 7 8 -3 8 -10 0 -11 3 -2 14 8
10 9 16 1 21 -5 3 -10 11 -10 16 0 6 5 7 10 4 13 -8 13 8 -1 22 -8 8 -7 13 2
18 8 6 10 4 4 -5 -5 -8 -4 -11 3 -7 12 8 4 48 -12 60 -6 5 0 5 13 2 l24 -7
-24 33 c-13 19 -16 28 -7 21 19 -15 27 -2 22 41 -1 15 1 25 5 23 4 -3 7 11 6
30 -2 28 0 34 12 29 13 -4 13 -3 4 9 -9 11 -8 15 3 19 8 3 13 14 12 24 -2 10
4 24 13 31 14 11 14 12 0 7 -9 -4 -16 0 -16 9 0 8 6 12 15 8 10 -3 13 0 10 9
-3 8 -12 13 -19 11 -8 -1 -2 8 14 21 15 12 27 27 27 32 0 6 -5 3 -10 -5 -7
-12 -9 -10 -7 7 0 12 5 19 11 16 5 -4 7 1 3 10 -3 10 -2 17 2 17 5 0 11 -6 14
-12 2 -7 4 1 4 19 0 29 -2 31 -14 15 -13 -15 -13 -15 -4 4 6 12 7 24 4 28 -3
3 -1 6 5 6 7 0 12 6 12 14 0 7 9 25 21 40 19 24 18 31 -3 27 -14 -2 -9 11 10
26 10 9 11 11 2 7 -10 -5 -8 0 4 15 22 25 31 55 13 44 -8 -5 -8 -2 0 9 7 8 9
19 5 24 -4 4 0 3 8 -3 12 -9 15 -7 17 14 1 19 -1 22 -8 12 -6 -9 -9 -10 -9 -2
0 6 5 15 10 18 6 4 7 11 4 17 -4 7 -2 8 4 4 7 -4 12 -2 12 4 0 6 4 9 8 6 5 -3
9 1 9 9 0 8 -4 12 -8 9 -4 -2 -11 0 -14 6 -4 6 -3 10 2 9 4 -1 15 -1 23 0 13
1 13 2 0 11 -8 5 -11 12 -7 16 3 4 14 1 24 -7 14 -12 16 -12 8 0 -5 8 -9 25
-10 37 0 19 2 21 15 11 8 -6 12 -7 8 -3 -4 5 -2 16 5 24 9 13 9 14 0 8 -7 -4
-13 -2 -13 3 0 6 6 11 14 11 8 0 18 5 22 12 4 7 3 8 -4 4 -18 -11 -14 10 4 28
8 9 20 14 25 11 15 -10 10 2 -8 21 -16 16 -16 16 4 10 18 -6 21 -3 19 18 -3
20 1 23 21 21 18 -2 21 0 12 11 -6 8 -16 11 -22 7 -6 -3 -7 -1 -3 6 4 6 12 9
17 6 5 -4 9 -1 9 5 0 6 4 9 9 5 6 -3 8 3 6 15 -2 11 1 23 7 26 6 4 8 3 5 -3
-4 -6 0 -13 8 -16 11 -5 12 -1 5 17 -6 16 -5 23 5 23 7 0 11 -7 8 -16 -2 -9 2
-5 10 9 9 14 14 27 12 30 -2 3 5 6 16 6 10 0 19 -4 19 -9 0 -5 6 -5 13 2 9 7
17 7 24 0 5 -5 17 -7 27 -3 14 5 14 9 4 23 -7 9 0 5 15 -9 16 -14 26 -18 22
-9 -8 20 45 20 63 -1 10 -13 11 -12 5 5 -3 11 -3 17 2 13 4 -4 15 -2 23 5 13
9 14 9 8 0 -4 -7 -4 -13 1 -14 4 0 17 -2 29 -3 17 -2 20 2 16 18 -4 19 -3 19
18 -4 21 -23 22 -23 18 -4 -4 16 -1 20 14 19 11 -1 24 -8 29 -16 7 -11 9 -11
9 3 0 12 5 15 17 11 12 -5 14 -3 8 8 -6 11 -5 12 6 1 19 -17 29 -15 22 6 -5
15 -4 16 8 1 8 -9 23 -19 34 -23 l20 -6 -20 16 c-19 15 -19 15 9 8 22 -5 27
-4 21 6 -6 9 -4 11 4 6 7 -5 10 -15 6 -24 -5 -14 -3 -14 13 1 10 9 23 17 28
17 5 0 2 -5 -6 -11 -12 -8 -10 -9 10 -7 18 2 24 -1 22 -12 -2 -11 1 -10 12 3
8 11 17 14 20 8 4 -5 15 -8 26 -6 11 2 20 -2 20 -8 0 -7 4 -6 10 3 5 8 10 10
10 4 0 -7 7 -14 14 -17 11 -4 13 -1 9 11 -6 15 -5 15 10 3 10 -8 20 -11 24 -8
3 4 15 1 26 -5 17 -9 19 -8 13 7 -5 14 -4 15 7 7 10 -9 17 -8 27 1 10 9 11 9
6 0 -12 -21 4 -15 25 9 12 15 18 17 17 8 -2 -9 3 -13 12 -11 13 4 27 6 73 10
5 1 5 5 2 11 -4 6 1 7 11 3 11 -4 15 -3 10 5 -6 10 -1 10 39 2 6 -1 17 -2 25
-1 13 1 13 2 0 11 -21 13 -3 13 22 -1 13 -7 18 -7 14 -1 -3 6 -2 13 4 17 5 3
10 2 10 -4 0 -5 9 -9 20 -8 11 1 20 5 20 8 0 4 12 6 26 3 19 -3 24 -1 18 8 -6
10 -5 11 7 1 11 -9 19 -9 26 -2 8 8 13 8 17 0 5 -7 15 -7 32 -1 15 6 23 6 19
1 -3 -5 -1 -12 5 -16 6 -3 10 4 10 17 0 19 2 20 10 8 8 -12 11 -13 19 -1 7 11
9 11 14 0 4 -12 7 -11 16 1 6 8 11 10 11 4 0 -6 7 -11 15 -11 10 0 12 4 5 12
-7 8 -3 11 13 10 14 -1 21 -8 21 -18 -1 -9 2 -14 7 -11 5 3 9 12 9 19 0 9 6
12 17 8 12 -5 14 -3 8 8 -7 11 -5 11 10 -1 10 -8 16 -10 12 -4 -10 16 18 25
33 11 10 -9 11 -9 5 2 -6 10 -2 12 14 6 15 -4 21 -2 21 9 0 8 5 18 12 22 7 4
8 3 4 -4 -4 -7 -1 -12 8 -12 8 0 18 5 22 11 3 6 15 8 26 6 16 -5 17 -3 6 11
-7 9 -8 13 -2 9 6 -3 22 0 37 8 14 7 29 10 33 7 4 -4 4 2 1 13 -7 20 -7 20 8
1 10 -13 15 -15 15 -6 0 7 3 10 7 7 3 -4 11 1 18 10 9 13 14 13 20 3 6 -9 4
-11 -5 -5 -9 5 -11 4 -6 -4 10 -15 26 -5 27 17 0 12 3 11 9 -5 5 -13 12 -23
15 -23 4 0 3 5 0 10 -3 6 -1 10 5 10 6 0 9 4 6 8 -2 4 4 8 14 8 15 0 17 -3 7
-15 -9 -11 -4 -11 17 3 16 10 25 13 22 7 -10 -15 7 -14 23 2 11 10 13 10 7 0
-9 -17 6 -17 22 -1 10 10 15 10 21 -1 7 -11 9 -11 14 0 5 12 6 12 6 0 1 -9 6
-8 19 6 9 10 14 14 10 9 -12 -15 -10 -23 7 -23 8 0 12 4 9 8 -2 4 0 10 6 14 5
3 10 -2 11 -12 0 -14 2 -14 9 4 5 13 12 23 15 23 4 0 4 -4 1 -9 -3 -5 1 -12 9
-15 9 -3 18 1 22 9 5 13 7 13 19 -2 12 -15 13 -15 8 -2 -8 24 11 32 30 13 15
-14 16 -14 16 2 0 16 1 16 15 -2 15 -18 15 -18 8 0 -4 13 -3 17 5 12 17 -10
54 3 46 16 -4 6 -2 8 4 4 5 -3 12 -3 15 1 2 5 2 3 1 -4 -2 -7 1 -15 6 -18 6
-4 10 1 10 9 0 9 5 17 10 17 6 1 15 3 20 4 6 1 15 3 21 4 5 0 7 6 3 12 -4 8 0
7 15 -1 12 -6 19 -16 16 -23 -4 -7 3 -1 14 12 12 13 21 18 21 11 0 -7 8 -2 18
11 15 17 21 19 27 9 6 -9 4 -11 -5 -5 -9 5 -11 4 -6 -4 9 -15 29 -3 23 13 -4
9 3 11 20 8 17 -3 24 -1 19 6 -4 7 1 10 14 7 11 -2 20 0 20 6 0 5 5 9 11 9 5
0 7 -6 4 -12 -4 -7 0 -5 8 5 16 20 32 23 21 5 -6 -10 -5 -10 8 -1 8 7 17 11
20 8 3 -3 11 3 19 12 13 16 12 17 -3 5 -11 -9 -18 -10 -23 -2 -4 6 -1 9 7 8 7
-2 12 4 10 12 -3 12 0 12 14 -2 17 -17 19 -16 36 10 10 15 18 22 18 16 0 -5
-6 -16 -12 -24 -11 -12 -10 -12 3 -2 9 6 20 8 24 4 5 -4 6 -2 2 3 -3 6 2 19
10 30 12 15 14 16 10 3 -3 -9 1 -22 11 -29 14 -11 15 -11 5 0 -6 7 -9 20 -6
28 5 12 7 12 15 1 7 -9 8 -7 5 9 -3 14 -1 20 8 17 7 -3 20 2 29 11 9 9 16 12
16 6 0 -6 5 -11 11 -11 5 0 7 5 3 12 -5 7 -2 9 9 5 11 -4 15 -1 12 12 -2 10 3
18 10 18 7 0 11 -7 8 -16 -3 -9 5 -1 17 16 12 18 26 30 31 27 5 -3 9 1 9 9 0
8 12 22 26 32 18 11 24 13 19 4 -5 -8 1 -6 12 4 16 14 22 15 27 5 3 -7 3 -1 0
15 -4 17 -2 27 6 27 6 0 8 -5 4 -12 -5 -9 -2 -9 9 1 18 15 23 26 7 16 -5 -3
-10 -1 -10 4 0 11 15 15 34 12 5 -1 3 6 -5 15 -8 10 -9 15 -2 11 17 -10 28 13
12 25 -10 7 -7 7 9 3 13 -4 22 -2 22 4 0 6 5 11 11 11 5 0 7 -5 3 -12 -4 -7
-3 -8 4 -4 6 4 9 13 6 21 -4 8 -11 12 -17 8 -6 -3 -7 -1 -3 6 4 6 12 9 17 5 6
-3 13 4 16 16 4 17 8 19 15 8 7 -9 8 -7 5 9 -4 16 -1 20 11 16 10 -4 13 -2 8
5 -4 7 -2 12 4 12 6 0 8 5 4 13 -6 9 -4 9 8 -1 14 -11 16 -10 11 9 -4 14 -2
20 5 16 6 -5 9 2 7 18 -1 14 2 28 7 31 4 3 6 10 3 15 -4 5 1 9 9 9 8 0 18 6
22 13 4 6 4 9 0 5 -5 -4 -14 -2 -21 5 -10 9 -9 14 3 23 18 13 26 54 11 54 -6
0 -1 9 12 20 13 11 18 19 10 18 -7 -2 -16 3 -18 10 -3 6 1 12 7 12 9 0 9 5 -1
17 -12 14 -12 16 0 8 11 -6 13 -4 7 10 -4 11 -2 22 6 27 10 6 10 8 -2 8 -13 0
-13 1 0 10 12 8 12 10 -3 16 -17 6 -17 7 0 21 13 10 15 16 6 19 -19 8 -16 24
3 17 14 -5 15 -3 4 17 -11 20 -10 22 4 17 8 -3 18 -1 22 5 4 7 3 8 -5 4 -14
-9 -26 18 -15 36 15 24 13 39 -9 47 l-21 8 22 5 c12 4 20 2 16 -3 -3 -5 2 -6
11 -2 13 4 14 8 4 14 -10 6 -10 11 1 24 10 13 11 15 1 13 -8 -2 -15 5 -16 14
-2 11 2 15 13 11 15 -4 15 -3 2 9 -17 15 -26 43 -10 33 13 -8 13 1 0 25 -8 16
-8 18 5 14 8 -4 15 -1 15 5 0 6 -4 11 -8 11 -5 0 -9 7 -9 15 0 8 4 12 9 9 7
-5 12 10 9 29 0 4 5 7 11 7 7 0 2 7 -10 16 -22 15 -22 34 1 34 7 0 6 -4 -3
-10 -8 -5 -10 -10 -4 -10 18 0 24 13 13 27 -6 7 -9 24 -7 38 3 14 1 28 -4 31
-5 3 -1 15 9 27 10 11 12 17 6 13 -8 -4 -13 -1 -13 9 0 9 4 14 8 11 4 -2 9 4
9 15 1 15 -1 18 -10 10 -9 -7 -12 -4 -12 15 1 13 5 27 10 31 4 5 5 2 1 -4 -4
-7 -3 -13 3 -13 5 0 9 9 8 20 -1 14 -6 19 -17 15 -9 -3 -8 1 4 10 11 8 15 15
9 15 -16 0 -24 28 -11 36 7 4 8 3 4 -4 -4 -7 -2 -12 3 -12 17 0 13 11 -11 39
-13 14 -16 20 -6 13 11 -9 18 -10 23 -2 3 5 1 10 -4 10 -6 0 -11 7 -11 16 0 9
5 12 13 8 8 -5 8 -3 -2 9 -7 9 -18 14 -24 10 -6 -3 -7 -1 -3 6 4 6 11 9 16 6
4 -3 6 5 2 17 -3 14 -2 19 6 14 7 -4 12 -2 12 3 0 14 -13 14 -26 1 -7 -7 -11
-6 -11 4 0 8 6 17 14 20 11 5 11 9 1 25 -7 11 -17 17 -23 14 -5 -4 -1 4 10 17
l20 23 -25 -8 -25 -7 22 19 c21 19 21 20 3 33 -15 10 -16 16 -7 22 9 6 9 8 -2
8 -11 0 -11 3 0 17 12 14 12 15 0 9 -10 -7 -12 -3 -6 13 4 13 2 21 -5 21 -6 0
-8 -6 -4 -12 4 -7 3 -9 -1 -5 -12 10 -16 39 -5 32 5 -3 12 -1 15 5 4 6 3 10
-2 9 -4 -1 -15 -1 -23 0 -13 1 -13 3 0 10 8 6 18 7 24 4 5 -3 6 -1 2 6 -4 6
-12 9 -17 6 -5 -4 -9 3 -9 15 0 14 -4 19 -12 14 -9 -5 -9 -2 1 9 10 13 10 17
1 17 -9 0 -9 4 1 16 12 15 11 16 -7 10 -14 -4 -21 -2 -21 8 0 9 5 12 10 9 5
-3 7 0 5 8 -3 8 -10 13 -15 12 -5 -1 -8 12 -7 28 1 16 -2 26 -7 23 -5 -3 -9 1
-9 10 0 8 3 16 8 19 4 2 2 2 -5 1 -11 -3 -23 17 -23 39 0 7 5 6 11 -3 9 -13
10 -13 6 0 -2 8 -13 20 -24 25 -11 6 -18 16 -15 24 3 8 0 11 -6 7 -5 -3 -12 1
-15 9 -4 10 -1 12 11 9 9 -3 6 1 -7 9 -15 9 -20 17 -12 21 6 4 11 13 11 19 0
7 -4 6 -10 -3 -9 -13 -10 -13 -10 0 0 13 -1 13 -10 0 -5 -8 -10 -10 -10 -4 0
6 3 14 7 18 4 3 8 13 9 22 2 10 -1 12 -9 5 -9 -7 -12 -3 -12 14 0 13 4 20 10
17 6 -3 2 6 -8 22 -15 23 -16 30 -5 43 11 14 10 15 -12 9 -20 -6 -22 -5 -8 4
17 11 14 40 -4 40 -6 0 -4 -8 3 -17 13 -17 12 -17 -4 -4 -15 12 -16 17 -5 26
7 5 14 16 16 24 3 12 0 12 -12 2 -12 -10 -14 -9 -9 8 3 12 1 21 -5 21 -5 0
-13 7 -16 16 -3 8 -2 12 4 9 6 -3 10 1 10 11 0 14 2 15 18 3 15 -13 16 -12 3
4 -11 13 -17 15 -28 6 -7 -7 -16 -9 -20 -5 -3 3 -1 6 5 6 8 0 9 7 2 25 -8 20
-7 23 8 19 14 -5 15 -4 2 5 -8 6 -11 11 -6 11 5 0 -1 12 -15 27 -13 14 -18 23
-10 18 11 -6 13 -4 8 9 -6 14 -3 17 10 12 15 -6 15 -5 2 11 -17 20 -14 57 3
47 7 -4 8 -2 4 5 -4 6 -11 9 -16 6 -4 -3 -6 5 -3 17 4 18 3 20 -6 8 -8 -11 -9
-8 -6 15 2 17 5 30 6 30 1 0 3 10 4 22 2 16 -2 20 -16 18 -18 -4 -18 -3 -2 23
15 23 15 25 2 15 -14 -11 -16 -9 -17 19 0 18 -6 34 -11 36 -7 2 -8 10 -1 22 7
13 5 21 -8 31 -15 13 -16 12 -3 -3 9 -12 10 -18 2 -18 -6 0 -11 3 -12 8 0 4
-2 15 -4 25 -2 9 1 15 5 12 5 -3 12 0 16 6 4 8 3 9 -5 5 -6 -4 -14 0 -17 9 -6
13 -8 14 -15 3 -6 -9 -9 -9 -9 -1 0 6 4 15 10 18 6 3 1 15 -11 28 -19 21 -19
22 -2 36 17 13 17 13 -1 7 -14 -5 -17 -2 -12 9 3 8 1 15 -5 15 -6 0 -8 8 -4
19 4 13 -1 20 -17 25 -23 6 -23 7 -4 21 19 15 19 15 -2 15 -12 0 -22 5 -22 10
0 6 8 10 18 10 16 1 16 1 0 11 -9 5 -15 16 -12 23 3 8 0 17 -7 22 -8 4 -10 3
-5 -4 5 -8 1 -10 -10 -5 -11 4 -13 8 -6 11 7 2 12 11 12 19 0 9 -6 13 -14 10
-10 -4 -13 -1 -9 8 3 8 9 12 14 9 5 -3 9 0 9 5 0 6 -7 11 -17 11 -14 0 -14 2
2 20 10 11 13 20 7 20 -7 0 -12 -4 -12 -10 0 -5 -5 -10 -11 -10 -6 0 -8 9 -3
22 6 20 5 21 -9 10 -13 -11 -15 -10 -10 10 4 13 11 26 17 30 7 5 5 8 -5 8 -8
0 -21 -6 -29 -12 -12 -11 -12 -10 -1 5 7 9 10 17 5 17 -5 0 -2 5 6 10 13 8 12
10 -2 10 -16 0 -20 6 -17 26 0 4 -5 11 -13 16 -9 7 -8 8 6 4 16 -6 17 -4 6 9
-7 8 -9 15 -4 15 4 0 -2 9 -14 20 -21 20 -30 36 -14 26 4 -2 8 4 8 15 0 12 -7
19 -21 20 -20 0 -20 0 0 9 17 7 17 9 3 9 -12 1 -18 9 -18 27 0 27 -23 58 -34
46 -4 -3 -4 1 0 11 3 9 11 14 18 10 6 -4 5 1 -3 10 -18 22 -32 22 -24 0 3 -10
3 -15 -1 -12 -11 10 -16 50 -5 44 5 -4 9 -1 9 4 0 6 -4 11 -10 11 -5 0 -14 10
-20 23 -11 21 -10 21 4 3 9 -11 16 -15 16 -9 0 7 -6 18 -14 25 -10 11 -11 19
-4 34 9 16 8 17 -3 7 -22 -22 -33 -14 -13 9 10 12 14 19 9 16 -6 -4 -19 1 -30
9 -20 16 -20 16 0 9 20 -6 20 -6 1 9 -18 13 -15 20 7 16 14 -2 7 8 -14 20 -13
7 -19 7 -15 1 3 -6 1 -14 -6 -18 -7 -4 -10 -3 -5 1 4 5 0 20 -10 34 -15 24
-15 25 0 12 28 -22 29 -7 2 19 -24 23 -24 24 -7 43 15 18 15 20 1 14 -13 -4
-16 -1 -12 16 4 17 2 19 -5 8 -8 -11 -10 -8 -9 12 2 19 5 23 15 15 9 -8 11 -7
6 6 -3 9 -11 16 -16 16 -6 0 -4 8 3 17 8 9 9 14 3 10 -7 -4 -15 0 -18 9 -3 8
-2 12 4 9 6 -3 10 -1 10 4 0 6 -4 11 -10 11 -5 0 -10 5 -10 11 0 5 4 7 10 4 6
-3 7 1 4 9 -3 9 -10 14 -14 11 -5 -3 -12 0 -16 6 -4 7 -3 9 4 5 6 -3 13 -2 17
4 3 5 2 10 -3 10 -5 0 -12 9 -15 20 -3 12 -1 18 5 14 6 -4 5 3 -1 15 -7 12 -9
25 -6 30 3 5 -7 19 -21 30 -15 12 -21 21 -15 21 9 0 9 5 0 23 -11 19 -10 20 3
10 12 -11 14 -9 13 9 -1 12 -8 24 -16 26 -11 3 -11 1 1 -7 8 -6 10 -11 4 -11
-23 0 -23 14 -2 39 13 14 16 20 8 14 -19 -17 -33 -16 -27 1 3 7 1 18 -4 23 -7
7 -4 17 8 28 17 18 17 18 -7 12 -24 -6 -24 -5 -6 8 18 14 18 15 2 15 -9 0 -14
5 -11 10 4 6 10 8 14 5 5 -2 6 7 3 20 -2 14 -9 25 -16 25 -6 0 -4 5 4 10 13 9
13 10 0 10 -13 0 -13 1 0 10 12 8 12 10 1 10 -8 0 -11 3 -8 6 3 4 2 14 -3 24
-11 21 -2 62 13 53 6 -3 7 -1 3 5 -4 7 -15 12 -24 12 -10 0 -13 3 -7 8 6 4 10
17 11 30 0 16 -4 21 -14 17 -12 -4 -13 -3 -2 10 12 14 7 19 -13 16 -5 -1 -6 3
-2 9 3 6 10 8 15 5 5 -3 7 5 5 17 -3 13 -10 25 -15 26 -7 3 -6 10 2 20 11 14
10 15 -7 8 -11 -4 -16 -4 -12 0 4 4 2 13 -4 21 -7 8 -8 13 -1 13 17 0 21 39 5
52 -11 9 -14 24 -10 54 3 28 1 42 -7 40 -6 -2 -8 -1 -3 1 4 3 4 10 1 15 -5 7
-2 8 6 3 10 -6 12 -4 7 8 -3 9 -1 19 5 23 6 4 8 3 4 -4 -3 -6 -2 -13 3 -17 6
-3 8 4 5 17 -7 28 -7 56 -1 83 3 11 6 24 6 28 1 5 6 5 11 2 6 -3 10 -2 10 4 0
5 -8 15 -17 20 -16 9 -16 10 -2 11 9 0 20 7 23 16 3 8 2 13 -3 10 -5 -3 -7 9
-5 27 1 17 3 37 3 44 1 6 8 19 17 27 8 9 12 16 7 16 -5 0 -15 -6 -22 -12 -10
-11 -11 -10 -6 5 4 9 12 17 19 17 7 0 7 3 1 8 -14 10 -15 71 0 66 7 -3 11 7
11 26 0 16 -4 30 -10 30 -6 0 -4 5 4 10 10 6 11 10 3 10 -7 0 -13 5 -13 11 0
5 4 8 9 5 5 -3 11 0 13 7 6 16 -2 38 -11 33 -4 -3 -8 2 -8 10 0 8 5 13 12 10
7 -2 10 6 7 26 -3 21 -1 29 7 24 8 -5 8 0 2 16 -4 13 -5 32 0 43 10 27 11 43
0 27 -6 -10 -10 -9 -14 7 -3 12 -1 19 3 16 5 -3 11 -1 15 5 3 5 1 10 -5 10 -6
0 -10 16 -8 41 1 29 -3 44 -14 50 -13 7 -15 16 -8 40 8 26 6 32 -10 36 -12 3
-16 10 -13 21 5 11 3 13 -8 7 -11 -7 -11 -5 1 10 12 15 12 17 1 10 -11 -6 -13
-4 -8 8 4 11 2 14 -9 10 -13 -5 -20 13 -15 40 1 5 -3 6 -9 2 -5 -3 -10 -1 -10
6 0 7 -3 9 -6 6 -4 -4 -1 -13 6 -22 7 -8 8 -15 3 -15 -5 0 -17 15 -27 33 -9
17 -15 25 -12 16 2 -9 -2 -16 -9 -16 -7 0 -12 8 -10 18 3 15 0 17 -20 9 -20
-8 -23 -6 -20 11 3 16 1 18 -17 8 -24 -13 -40 3 -31 30 3 11 2 12 -4 4 -12
-17 -40 -11 -59 13 -8 10 -12 12 -8 4 5 -10 0 -8 -15 4 -22 20 -22 20 -15 0 4
-14 3 -15 -4 -5 -6 8 -15 10 -23 5 -11 -6 -12 -5 -2 8 16 18 5 32 -14 17 -9
-9 -13 -8 -13 0 0 6 -6 10 -12 8 -8 -1 -12 6 -10 18 3 16 1 18 -9 8 -7 -7 -18
-13 -23 -13 -6 0 -4 5 4 10 13 9 13 12 -2 24 -10 7 -14 17 -10 22 4 4 0 3 -10
-4 -11 -9 -18 -10 -23 -2 -3 5 -4 10 0 10 3 0 1 8 -4 18 -14 26 -86 74 -115
77 -14 2 -37 6 -53 9 -16 4 -51 7 -78 8 -44 1 -55 5 -89 40 -21 21 -53 46 -70
55 -17 9 -42 22 -56 29 -25 13 -36 57 -19 79 4 6 9 26 11 45 1 19 6 37 10 40
4 3 9 19 12 35 3 17 12 53 20 82 8 28 11 54 8 57 -3 3 -1 6 4 6 9 0 33 101 33
140 0 18 9 148 15 205 4 44 32 164 40 172 3 3 1 15 -5 26 -8 14 -8 18 0 13 11
-7 13 -1 14 52 1 15 6 30 12 35 6 4 5 10 -5 17 -15 9 -13 11 12 14 6 0 12 11
13 24 1 16 -2 19 -9 12 -5 -5 -15 -10 -20 -10 -6 0 -5 4 3 9 8 5 15 20 15 33
1 12 5 29 10 36 7 12 4 12 -15 1 -22 -11 -23 -11 -10 4 15 19 7 52 -10 41 -7
-4 -6 2 2 17 11 21 11 23 -3 11 -11 -8 -17 -9 -20 -2 -1 5 -14 12 -26 15 -18
3 -22 0 -18 -10 3 -8 0 -17 -6 -21 -6 -4 -9 -3 -5 2 3 5 -2 18 -10 29 -13 16
-15 17 -10 3z m-846 -1774 c-3 -3 -12 -4 -19 -1 -8 3 -5 6 6 6 11 1 17 -2 13
-5z m1758 -93 c3 -5 2 -12 -3 -15 -5 -3 -9 1 -9 9 0 17 3 19 12 6z m-7 -376
c-3 -3 -9 2 -12 12 -6 14 -5 15 5 6 7 -7 10 -15 7 -18z m-1301 -760 c0 -8 -4
-12 -9 -9 -5 3 -6 10 -3 15 9 13 12 11 12 -6z m18 -115 c3 -5 1 -10 -4 -10 -6
0 -11 5 -11 10 0 6 2 10 4 10 3 0 8 -4 11 -10z m-4661 -138 c3 -5 -1 -9 -9 -9
-8 0 -12 4 -9 9 3 4 7 8 9 8 2 0 6 -4 9 -8z m-7467 -105 c0 -8 -6 -14 -14 -14
-9 0 -10 4 -2 14 6 7 12 13 14 13 1 0 2 -6 2 -13z m12220 -222 c0 -8 -4 -12
-9 -9 -5 3 -6 10 -3 15 9 13 12 11 12 -6z m-12277 -96 c0 -5 -4 -9 -8 -9 -5 0
-9 7 -9 15 0 8 4 12 9 9 4 -3 8 -9 8 -15z m1195 -338 c3 -5 2 -12 -3 -15 -5
-3 -9 1 -9 9 0 17 3 19 12 6z m6365 -100 c0 -6 -4 -12 -8 -15 -5 -3 -9 1 -9 9
0 8 4 15 9 15 4 0 8 -4 8 -9z m-7570 -11 c0 -5 -5 -10 -11 -10 -5 0 -7 5 -4
10 3 6 8 10 11 10 2 0 4 -4 4 -10z m1220 -128 c0 -5 -7 -9 -15 -9 -8 0 -12 4
-9 9 3 4 9 8 15 8 5 0 9 -4 9 -8z m6380 -122 c0 -5 -2 -10 -4 -10 -3 0 -8 5
-11 10 -3 6 -1 10 4 10 6 0 11 -4 11 -10z m4770 -173 c0 -2 -10 -12 -22 -23
l-23 -19 19 23 c18 21 26 27 26 19z m-3880 -182 c11 -13 10 -14 -4 -9 -9 3
-16 10 -16 15 0 13 6 11 20 -6z m477 -39 c-3 -6 -11 -9 -18 -7 -8 2 -20 4 -26
4 -28 1 -11 14 17 14 18 0 29 -5 27 -11z m-9052 -65 c3 -5 2 -12 -3 -15 -5 -3
-9 1 -9 9 0 17 3 19 12 6z m9771 -57 c18 -14 18 -14 -6 -3 -31 14 -36 19 -24
19 6 0 19 -7 30 -16z m-9815 -77 c-10 -9 -11 -8 -5 6 3 10 9 15 12 12 3 -3 0
-11 -7 -18z m10023 15 c3 -5 -1 -9 -9 -9 -8 0 -12 4 -9 9 3 4 7 8 9 8 2 0 6
-4 9 -8z m4166 -62 c0 -5 -2 -10 -4 -10 -3 0 -8 5 -11 10 -3 6 -1 10 4 10 6 0
11 -4 11 -10z m-9365 -136 c-13 -14 -19 -14 -28 -4 -9 10 -9 11 0 6 6 -3 14
-2 18 4 3 5 11 10 16 10 6 0 3 -7 -6 -16z m-55 -14 c0 -5 -5 -10 -11 -10 -5 0
-7 5 -4 10 3 6 8 10 11 10 2 0 4 -4 4 -10z m6088 -35 c-3 -3 -9 2 -12 12 -6
14 -5 15 5 6 7 -7 10 -15 7 -18z m177 -44 c3 -5 1 -12 -5 -16 -5 -3 -10 1 -10
9 0 18 6 21 15 7z m166 -68 c13 -16 12 -17 -3 -4 -10 7 -18 15 -18 17 0 8 8 3
21 -13z m1367 -48 c-3 -3 -9 2 -12 12 -6 14 -5 15 5 6 7 -7 10 -15 7 -18z m50
-200 c-3 -3 -9 2 -12 12 -6 14 -5 15 5 6 7 -7 10 -15 7 -18z m-555 -79 c4 -10
1 -13 -8 -9 -8 3 -12 9 -9 14 7 12 11 11 17 -5z m-10430 -31 c-3 -9 -8 -14
-10 -11 -3 3 -2 9 2 15 9 16 15 13 8 -4z m952 -245 c-3 -5 -12 -10 -18 -10 -7
0 -6 4 3 10 19 12 23 12 15 0z m-242 -57 c-4 -10 -9 -11 -19 -2 -11 9 -14 8
-14 -1 0 -8 -3 -11 -6 -7 -10 10 3 23 24 23 12 0 18 -5 15 -13z m12152 -231
c-3 -3 -11 0 -18 7 -9 10 -8 11 6 5 10 -3 15 -9 12 -12z m0 -520 c-3 -3 -11 0
-18 7 -9 10 -8 11 6 5 10 -3 15 -9 12 -12z m-14475 -6 c0 -11 -19 -15 -25 -6
-3 5 1 10 9 10 9 0 16 -2 16 -4z m14407 -581 c0 -8 -4 -12 -9 -9 -5 3 -6 10
-3 15 9 13 12 11 12 -6z m-14172 -135 c-3 -5 -12 -10 -18 -10 -7 0 -6 4 3 10
19 12 23 12 15 0z m13925 -250 c0 -5 -5 -10 -11 -10 -5 0 -7 5 -4 10 3 6 8 10
11 10 2 0 4 -4 4 -10z m-12845 -388 c-3 -3 -11 0 -18 7 -9 10 -8 11 6 5 10 -3
15 -9 12 -12z m9980 -242 c3 -5 1 -10 -4 -10 -6 0 -11 5 -11 10 0 6 2 10 4 10
3 0 8 -4 11 -10z m-8165 -150 c0 -5 -5 -10 -11 -10 -5 0 -7 5 -4 10 3 6 8 10
11 10 2 0 4 -4 4 -10z m104 -226 c5 -14 4 -15 -9 -4 -17 14 -19 20 -6 20 5 0
12 -7 15 -16z m7691 -154 c-3 -5 -11 -10 -16 -10 -6 0 -7 5 -4 10 3 6 11 10
16 10 6 0 7 -4 4 -10z m-20 -80 c-3 -5 -12 -10 -18 -10 -7 0 -6 4 3 10 19 12
23 12 15 0z m-165 -740 c0 -5 -2 -10 -4 -10 -3 0 -8 5 -11 10 -3 6 -1 10 4 10
6 0 11 -4 11 -10z m-7080 -520 c0 -5 -2 -10 -4 -10 -3 0 -8 5 -11 10 -3 6 -1
10 4 10 6 0 11 -4 11 -10z m37 -165 c0 -8 -4 -12 -9 -9 -5 3 -6 10 -3 15 9 13
12 11 12 -6z"/>
<path d="M17873 10605 c0 -8 4 -12 9 -9 5 3 6 10 3 15 -9 13 -12 11 -12 -6z"/>
<path d="M4326 10582 c-3 -5 1 -9 9 -9 8 0 12 4 9 9 -3 4 -7 8 -9 8 -2 0 -6
-4 -9 -8z"/>
<path d="M11788 10403 c7 -3 16 -2 19 1 4 3 -2 6 -13 5 -11 0 -14 -3 -6 -6z"/>
<path d="M17875 10369 c-4 -6 -5 -12 -2 -15 2 -3 7 2 10 11 7 17 1 20 -8 4z"/>
<path d="M4396 10332 c-3 -5 1 -9 9 -9 8 0 12 4 9 9 -3 4 -7 8 -9 8 -2 0 -6
-4 -9 -8z"/>
<path d="M11835 10321 c-3 -5 -2 -12 3 -15 5 -3 9 1 9 9 0 17 -3 19 -12 6z"/>
<path d="M16625 10010 c-3 -6 1 -7 9 -4 18 7 21 14 7 14 -6 0 -13 -4 -16 -10z"/>
<path d="M17965 9780 c-3 -5 -1 -10 4 -10 6 0 11 5 11 10 0 6 -2 10 -4 10 -3
0 -8 -4 -11 -10z"/>
<path d="M4440 9740 c-13 -8 -12 -10 3 -10 9 0 17 5 17 10 0 12 -1 12 -20 0z"/>
<path d="M9725 9440 c3 -5 8 -10 11 -10 2 0 4 5 4 10 0 6 -5 10 -11 10 -5 0
-7 -4 -4 -10z"/>
<path d="M12067 9433 c-4 -3 -7 -11 -7 -17 0 -6 5 -5 12 2 6 6 9 14 7 17 -3 3
-9 2 -12 -2z"/>
<path d="M18036 9418 c3 -5 10 -6 15 -3 13 9 11 12 -6 12 -8 0 -12 -4 -9 -9z"/>
<path d="M9756 9047 c3 -10 9 -15 12 -12 3 3 0 11 -7 18 -10 9 -11 8 -5 -6z"/>
<path d="M16713 9005 c0 -8 4 -12 9 -9 5 3 6 10 3 15 -9 13 -12 11 -12 -6z"/>
<path d="M4381 8907 c-8 -10 -7 -14 2 -14 8 0 14 6 14 14 0 7 -1 13 -2 13 -2
0 -8 -6 -14 -13z"/>
<path d="M18255 8880 c3 -5 8 -10 11 -10 2 0 4 5 4 10 0 6 -5 10 -11 10 -5 0
-7 -4 -4 -10z"/>
<path d="M4358 8773 c7 -3 16 -2 19 1 4 3 -2 6 -13 5 -11 0 -14 -3 -6 -6z"/>
<path d="M12190 8679 c0 -5 5 -7 10 -4 6 3 10 8 10 11 0 2 -4 4 -10 4 -5 0
-10 -5 -10 -11z"/>
<path d="M5825 8620 c3 -5 11 -10 16 -10 6 0 7 5 4 10 -3 6 -11 10 -16 10 -6
0 -7 -4 -4 -10z"/>
<path d="M12665 8559 c-4 -6 -5 -12 -2 -15 2 -3 7 2 10 11 7 17 1 20 -8 4z"/>
<path d="M12830 8520 c0 -5 5 -10 11 -10 5 0 7 5 4 10 -3 6 -8 10 -11 10 -2 0
-4 -4 -4 -10z"/>
<path d="M16738 8503 c7 -3 16 -2 19 1 4 3 -2 6 -13 5 -11 0 -14 -3 -6 -6z"/>
<path d="M18400 8466 c0 -2 8 -10 18 -17 15 -13 16 -12 3 4 -13 16 -21 21 -21
13z"/>
<path d="M13471 8434 c0 -11 3 -14 6 -6 3 7 2 16 -1 19 -3 4 -6 -2 -5 -13z"/>
<path d="M9915 8350 c4 -6 11 -8 16 -5 14 9 11 15 -7 15 -8 0 -12 -5 -9 -10z"/>
<path d="M9890 8299 c0 -5 5 -7 10 -4 6 3 10 8 10 11 0 2 -4 4 -10 4 -5 0 -10
-5 -10 -11z"/>
<path d="M9795 8240 c-3 -5 -1 -10 4 -10 6 0 11 5 11 10 0 6 -2 10 -4 10 -3 0
-8 -4 -11 -10z"/>
<path d="M14381 8234 c0 -11 3 -14 6 -6 3 7 2 16 -1 19 -3 4 -6 -2 -5 -13z"/>
<path d="M15193 8005 c0 -8 4 -12 9 -9 5 3 6 10 3 15 -9 13 -12 11 -12 -6z"/>
<path d="M4240 7920 c-9 -6 -10 -10 -3 -10 6 0 15 5 18 10 8 12 4 12 -15 0z"/>
<path d="M4195 7691 c-3 -5 -2 -12 3 -15 5 -3 9 1 9 9 0 17 -3 19 -12 6z"/>
<path d="M16455 7541 c-3 -5 -1 -12 5 -16 5 -3 10 1 10 9 0 18 -6 21 -15 7z"/>
<path d="M5953 7415 c0 -8 4 -12 9 -9 5 3 6 10 3 15 -9 13 -12 11 -12 -6z"/>
<path d="M6006 7295 c-11 -8 -15 -15 -9 -15 6 0 16 7 23 15 16 19 11 19 -14 0z"/>
<path d="M6690 7239 c0 -5 5 -7 10 -4 6 3 10 8 10 11 0 2 -4 4 -10 4 -5 0 -10
-5 -10 -11z"/>
<path d="M4195 7081 c-6 -11 13 -26 22 -17 4 3 1 6 -6 6 -7 0 -9 5 -6 10 3 6
4 10 1 10 -3 0 -7 -4 -11 -9z"/>
<path d="M4247 6659 c7 -7 15 -10 18 -7 3 3 -2 9 -12 12 -14 6 -15 5 -6 -5z"/>
<path d="M18430 5439 c0 -5 5 -7 10 -4 6 3 10 8 10 11 0 2 -4 4 -10 4 -5 0
-10 -5 -10 -11z"/>
<path d="M5356 5242 c-3 -5 1 -9 9 -9 8 0 12 4 9 9 -3 4 -7 8 -9 8 -2 0 -6 -4
-9 -8z"/>
<path d="M17840 5160 c-8 -5 -12 -12 -9 -15 4 -3 12 1 19 10 14 17 11 19 -10
5z"/>
<path d="M5676 5082 c-3 -5 1 -9 9 -9 8 0 12 4 9 9 -3 4 -7 8 -9 8 -2 0 -6 -4
-9 -8z"/>
<path d="M6233 4925 c0 -8 4 -12 9 -9 5 3 6 10 3 15 -9 13 -12 11 -12 -6z"/>
<path d="M7186 4807 c3 -10 9 -15 12 -12 3 3 0 11 -7 18 -10 9 -11 8 -5 -6z"/>
<path d="M15168 4043 c7 -3 16 -2 19 1 4 3 -2 6 -13 5 -11 0 -14 -3 -6 -6z"/>
</g>
</svg>
